 <svg  version="1.0" xmlns="http://www.w3.org/2000/svg"  width="450.000000pt" height="422.000000pt" viewBox="0 0 450.000000 422.000000"  preserveAspectRatio="xMidYMid meet">  <g transform="translate(0.000000,422.000000) scale(0.050000,-0.050000)" fill="#eb2d2d" stroke="none"> <path d="M4450 6499 c-22 -9 -71 -17 -110 -18 -38 -1 -87 -15 -109 -32 -21 -16 -68 -29 -105 -29 -49 0 -66 -9 -66 -35 -1 -27 -4 -29 -18 -8 -14 23 -19 23 -28 0 -8 -19 -11 -20 -12 -2 -4 50 -194 -15 -236 -80 -9 -14 -52 -43 -95 -65 -48 -25 -108 -82 -155 -150 -42 -60 -89 -125 -105 -144 -15 -18 -44 -59 -63 -90 -19 -31 -60 -83 -90 -116 -125 -138 -136 -185 -129 -580 7 -399 24 -523 84 -587 101 -108 93 -228 -11 -174 -213 110 -258 -101 -101 -469 75 -178 96 -248 87 -294 -20 -103 123 -172 177 -86 28 46 55 52 55 14 0 -14 36 -101 80 -192 169 -350 60 -587 -337 -731 -114 -41 -280 -109 -370 -150 -90 -42 -293 -118 -453 -171 -159 -52 -348 -121 -420 -154 -71 -33 -172 -72 -223 -88 -290 -89 -391 -174 -477 -403 -43 -116 -54 -164 -109 -495 -18 -110 -55 -299 -82 -420 -27 -121 -58 -285 -69 -365 -11 -80 -29 -184 -39 -230 -34 -146 -31 -155 59 -155 72 0 80 5 80 51 0 29 9 46 20 39 11 -7 20 -4 20 7 0 10 -13 24 -30 30 -25 10 -21 27 24 101 50 82 104 109 77 37 -6 -16 0 -44 13 -60 22 -26 19 -29 -18 -17 -40 13 -41 10 -20 -35 13 -27 30 -46 38 -41 8 5 23 -20 33 -56 l19 -66 2 75 c2 58 -6 75 -33 77 -21 1 -25 5 -10 11 30 12 34 159 5 177 -25 16 -7 50 26 50 14 0 12 -8 -6 -20 -26 -17 -26 -19 3 -20 20 0 37 -24 45 -63 7 -35 35 -93 62 -129 28 -36 50 -76 50 -88 0 -13 11 -20 25 -15 13 4 37 -4 51 -18 15 -15 41 -27 57 -27 30 0 -14 67 -108 167 -19 20 -32 49 -29 65 3 16 -7 34 -23 40 -16 6 -35 35 -43 64 -14 56 -61 111 -108 127 -27 9 -45 197 -20 197 12 0 58 -85 80 -150 12 -33 14 -34 16 -6 1 25 12 31 37 21 32 -12 33 -10 3 36 -52 80 -64 179 -22 180 31 0 31 2 2 25 -23 17 -28 37 -16 69 9 24 8 49 -2 55 -17 10 -8 288 11 346 5 14 1 21 -8 16 -9 -6 -16 27 -15 74 2 69 9 85 44 90 38 5 45 -12 77 -200 46 -273 114 -519 182 -666 31 -66 58 -129 60 -141 3 -11 32 -66 67 -122 69 -113 76 -137 32 -120 -21 8 -28 -1 -25 -33 4 -32 -4 -42 -30 -38 -47 8 -44 -12 10 -57 60 -51 182 -53 167 -4 -27 91 -56 240 -55 290 0 30 -7 55 -16 55 -8 0 -21 61 -27 135 -6 74 -17 158 -25 185 -7 28 -14 66 -15 85 -2 19 -11 35 -21 35 -10 0 -13 18 -7 40 7 27 -6 53 -38 78 -30 24 -44 50 -36 70 7 18 2 32 -10 32 -26 0 -26 5 -1 -169 11 -77 31 -146 45 -155 17 -11 16 -16 -6 -16 -26 -1 -25 -5 2 -26 18 -13 37 -51 44 -84 6 -33 18 -86 26 -118 19 -78 -16 -55 -69 46 -48 93 -107 282 -87 282 8 0 3 7 -10 16 -13 8 -27 37 -32 64 -4 28 -14 64 -22 82 -8 18 -18 58 -22 90 -4 32 -9 63 -11 68 -2 6 -2 26 0 45 2 19 -7 35 -20 35 -14 0 -19 17 -13 39 5 22 2 42 -7 45 -9 3 -20 57 -24 120 -3 62 0 109 9 103 9 -5 16 0 16 12 0 11 10 19 22 16 13 -3 28 8 33 23 6 17 1 22 -12 14 -13 -8 -23 -4 -23 8 0 12 -10 16 -22 9 -16 -10 -18 6 -8 53 18 85 27 95 51 57 25 -40 24 -6 -2 42 -26 50 11 53 39 4 20 -33 32 -14 25 38 -2 17 133 42 154 29 9 -6 15 9 14 33 -1 34 12 45 59 48 32 3 71 21 85 41 22 29 33 31 65 10 32 -19 40 -19 40 1 1 19 5 18 18 -2 12 -19 21 -21 31 -5 7 12 0 28 -18 34 -17 7 -26 21 -19 31 7 12 22 10 38 -3 16 -14 31 -15 38 -3 7 11 1 24 -13 28 -14 5 13 13 60 18 64 6 83 2 76 -17 -5 -15 4 -26 22 -26 22 0 28 12 21 40 -8 31 0 40 36 40 29 0 49 15 56 40 10 41 94 58 94 20 0 -11 -12 -20 -28 -20 -38 0 -81 -56 -81 -107 -1 -32 -11 -41 -41 -36 -22 4 -34 0 -26 -8 24 -23 136 -30 136 -7 0 11 -9 15 -20 8 -11 -7 -20 -5 -20 4 1 32 38 73 70 78 19 3 47 24 63 47 16 22 42 41 58 41 16 0 29 9 29 20 0 11 22 20 48 20 27 0 54 11 60 25 10 20 14 20 24 0 8 -18 22 -19 50 -4 21 11 38 15 38 9 0 -6 13 0 28 14 20 19 21 30 5 41 -15 10 -7 19 22 27 25 7 45 20 45 29 0 9 27 22 60 29 33 7 60 26 60 42 0 15 14 28 30 28 42 0 37 -33 -10 -66 -22 -15 -34 -33 -28 -40 7 -6 -6 -36 -30 -66 -46 -58 -56 -99 -19 -76 16 10 20 4 11 -19 -18 -47 20 -41 46 7 12 22 28 39 36 37 37 -5 51 5 27 21 -22 14 -20 25 15 60 23 23 42 49 43 57 0 8 58 78 128 155 88 97 127 128 124 100 -2 -28 8 -38 32 -34 41 7 43 -4 13 -60 -14 -25 -15 -46 -3 -54 28 -18 50 -122 25 -122 -11 0 -20 -16 -20 -35 1 -30 3 -31 20 -5 11 17 20 26 21 20 1 -5 6 -30 10 -55 5 -27 -1 -45 -16 -45 -16 0 -17 -6 -5 -15 24 -18 29 -125 6 -125 -9 0 -16 9 -16 19 0 11 -15 14 -34 7 -27 -11 -28 -15 -5 -23 15 -5 37 -19 49 -32 28 -30 36 -77 10 -61 -11 7 -20 -7 -20 -34 1 -37 4 -40 20 -16 11 17 19 21 19 10 0 -11 -8 -33 -18 -50 -13 -20 -9 -40 12 -63 82 -91 -196 -247 -321 -180 -133 72 -276 215 -239 239 41 27 129 230 109 250 -13 13 -28 2 -44 -33 -27 -59 -63 -73 -46 -18 10 32 9 32 -12 -1 -18 -28 -30 -31 -50 -14 -23 19 -24 15 -4 -27 16 -33 28 -42 38 -26 28 44 17 -26 -13 -85 -31 -61 -33 -212 -2 -181 32 32 93 -40 70 -82 -12 -24 -12 -41 1 -49 11 -7 20 -3 20 9 0 33 87 15 116 -24 15 -19 39 -35 55 -35 16 0 29 -5 29 -12 0 -28 -128 -128 -163 -128 -22 0 -34 -9 -27 -20 7 -11 -4 -26 -24 -34 -20 -8 -49 -26 -64 -41 -15 -15 -48 -41 -72 -57 -51 -33 -52 -109 -3 -158 21 -21 27 -52 19 -100 -7 -45 -3 -70 11 -70 13 0 23 -14 23 -30 0 -17 -10 -28 -22 -25 -13 3 -28 -8 -33 -23 -6 -16 -1 -22 11 -14 26 16 63 -104 55 -177 -3 -27 1 -46 10 -41 8 6 20 -4 26 -20 7 -17 4 -30 -6 -30 -10 0 -6 -25 10 -55 15 -30 24 -78 18 -108 -5 -30 0 -60 11 -67 11 -7 15 -21 9 -31 -6 -11 -2 -19 9 -19 11 0 16 -18 12 -40 -15 -78 36 -260 72 -260 31 0 30 18 -12 215 -26 118 -51 247 -58 285 -26 166 -112 731 -112 744 0 8 43 43 95 78 52 36 127 93 166 126 39 34 106 89 148 122 42 33 111 90 152 126 45 39 81 57 88 45 8 -12 3 -21 -9 -21 -16 0 -18 -21 -8 -65 9 -36 16 -90 17 -120 0 -30 9 -53 19 -50 34 10 56 -91 24 -109 -32 -18 -29 -120 4 -162 10 -13 24 -46 30 -74 6 -27 15 -70 21 -95 6 -25 2 -45 -8 -45 -11 0 -19 -13 -19 -30 0 -16 8 -30 18 -30 10 0 23 14 29 30 13 34 73 41 73 9 0 -12 -8 -16 -18 -10 -10 6 -23 -2 -29 -18 -6 -16 0 -33 13 -38 35 -14 -28 -56 -64 -42 -23 8 -23 5 -2 -21 18 -22 33 -25 47 -11 64 64 85 -44 21 -113 -26 -29 -48 -40 -48 -26 0 15 -5 21 -12 15 -33 -33 19 -55 54 -23 43 38 49 25 16 -35 -11 -22 -33 -36 -48 -30 -14 6 -30 -6 -36 -27 -10 -38 27 -36 78 3 12 9 38 3 60 -15 23 -18 29 -34 16 -40 -12 -5 -18 -31 -13 -58 5 -27 17 -45 26 -39 9 5 22 1 29 -11 7 -11 -3 -20 -21 -20 -22 0 -29 -10 -21 -30 7 -17 17 -44 24 -60 7 -18 1 -30 -15 -30 -15 0 -3 -22 28 -51 70 -65 69 -87 -5 -102 -47 -9 -58 -22 -55 -58 2 -25 11 -42 20 -36 8 5 10 20 2 32 -9 14 -2 17 20 9 21 -8 33 -3 33 15 0 18 14 24 40 17 34 -9 36 -16 16 -40 -49 -60 -34 -80 64 -83 83 -3 95 1 89 32 -4 19 -31 206 -60 415 -109 798 -163 1090 -218 1173 -28 42 -60 119 -71 172 -86 418 -107 1444 -21 1065 22 -102 198 -615 238 -695 9 -19 39 -79 65 -132 26 -53 71 -116 98 -138 31 -26 37 -36 15 -29 -60 22 -39 -22 39 -80 160 -120 257 -233 261 -303 2 -43 20 -79 51 -103 48 -38 60 -98 106 -550 7 -66 29 -187 50 -270 21 -82 43 -213 49 -290 23 -301 45 -333 86 -130 93 466 197 903 257 1089 l32 98 37 -46 c20 -25 37 -63 37 -84 0 -22 8 -34 18 -28 10 6 23 0 28 -14 4 -14 16 -18 25 -9 29 26 -51 148 -122 186 -143 77 -153 39 213 798 116 239 242 589 268 741 l14 79 -49 -90 c-27 -49 -66 -135 -87 -190 -42 -114 -153 -288 -246 -388 -35 -37 -58 -72 -53 -78 6 -6 -7 -23 -28 -38 -34 -24 -77 -148 -65 -191 2 -8 -16 -15 -40 -15 -43 0 -43 1 -5 32 38 31 38 31 -1 18 -22 -8 -62 -18 -90 -23 -27 -5 -69 -31 -92 -58 -26 -29 -64 -49 -97 -49 -29 0 -48 -8 -42 -19 7 -11 -12 -12 -49 -1 -47 13 -60 11 -60 -11 0 -37 -10 -36 -74 6 -35 23 -55 27 -60 12 -10 -29 -89 -11 -119 27 -13 16 -31 29 -40 30 -40 3 -67 22 -67 48 0 15 -9 28 -20 28 -11 0 -20 14 -20 30 0 17 -9 30 -19 30 -11 0 -34 27 -51 60 -17 33 -26 60 -19 60 6 0 -5 25 -26 55 -54 80 -111 219 -98 240 6 10 -9 48 -33 85 -83 126 -93 150 -94 213 0 34 -23 113 -50 175 -70 159 -62 173 32 54 45 -57 108 -117 140 -133 32 -17 58 -37 58 -46 0 -9 12 -16 26 -16 25 0 151 -80 174 -110 6 -8 35 -20 65 -28 30 -7 55 -19 55 -27 0 -17 123 -68 155 -64 14 2 25 -5 25 -15 0 -37 295 -71 335 -38 13 11 39 14 56 7 17 -6 60 3 95 22 35 19 77 36 94 39 16 3 32 14 36 26 4 12 20 21 35 21 15 0 49 20 76 45 27 25 70 59 95 75 25 17 68 53 95 80 27 28 43 37 36 20 -8 -16 -3 -13 11 8 14 21 45 61 69 90 l44 52 16 -60 c44 -157 -26 -1028 -102 -1270 -109 -349 -181 -730 -241 -1270 -17 -154 -36 -309 -41 -345 -10 -61 102 -109 114 -50 13 63 8 137 -11 150 -16 10 -15 14 2 15 13 0 29 -9 36 -20 7 -11 22 -20 35 -20 12 0 16 6 9 13 -8 7 -4 25 8 40 23 27 83 -10 75 -47 -2 -9 4 -32 12 -51 18 -42 51 -27 51 24 0 20 13 47 30 61 16 13 24 33 18 43 -6 10 -1 32 13 48 15 19 16 29 3 29 -30 0 -54 -43 -47 -85 3 -21 -7 -35 -27 -35 -19 0 -27 9 -18 23 9 15 5 18 -10 8 -28 -17 -87 25 -71 51 6 10 -2 12 -19 6 -16 -6 -34 -26 -40 -45 -6 -18 -7 0 -3 40 4 40 -3 84 -16 98 -18 19 -17 21 5 9 21 -12 26 -8 16 16 -7 18 0 46 16 61 15 16 22 35 14 42 -8 8 -5 11 6 8 11 -4 20 2 20 13 0 11 -7 18 -17 14 -9 -3 -10 14 -2 38 8 28 6 38 -7 30 -12 -7 -27 -4 -34 8 -7 11 2 20 19 20 17 0 31 10 31 21 0 12 -11 15 -25 7 -15 -8 -18 -7 -8 4 9 10 25 19 35 21 10 1 25 3 34 5 8 1 17 27 18 57 3 53 3 53 -18 10 -35 -71 -117 -55 -92 19 23 65 56 93 56 47 0 -17 -7 -31 -17 -31 -9 0 -16 -13 -16 -30 0 -16 7 -30 16 -30 10 0 17 14 17 30 0 17 23 41 50 54 28 12 50 30 50 39 0 26 -35 20 -49 -8 -6 -14 -8 -5 -3 20 5 29 -2 45 -20 45 -32 0 -37 32 -8 50 31 19 24 73 -9 66 -15 -3 -29 3 -29 14 -1 11 17 19 38 18 22 -2 41 10 43 25 1 15 4 36 7 47 3 11 6 27 8 35 1 8 12 2 24 -15 19 -27 20 -27 12 0 -5 17 -19 28 -32 25 -33 -7 -27 30 9 50 39 22 16 92 -25 76 -16 -6 -23 -2 -15 11 7 11 26 16 41 10 16 -6 28 2 28 19 0 16 12 29 27 29 18 0 24 16 18 50 -7 35 -1 50 21 50 35 0 60 54 40 87 -7 13 4 10 25 -7 37 -28 38 -27 7 10 -63 78 -68 97 -21 85 50 -13 54 -1 14 44 -31 34 -21 129 12 109 10 -6 12 -21 4 -32 -8 -14 -4 -16 13 -6 20 12 23 7 13 -19 -10 -26 -6 -32 17 -24 16 7 30 3 30 -7 0 -10 17 -28 37 -38 33 -18 36 -14 27 34 -6 30 -15 42 -19 28 -6 -18 -29 -5 -67 38 -60 68 -72 89 -38 68 11 -7 20 1 20 17 0 16 11 34 25 40 20 8 20 10 0 11 -14 1 -25 19 -25 40 0 30 10 36 45 27 25 -6 39 -4 31 5 -18 19 20 95 42 81 8 -5 15 3 15 18 0 16 -12 22 -30 16 -18 -7 -24 -3 -16 10 8 12 5 28 -7 35 -11 7 -20 -2 -20 -19 0 -17 -10 -31 -21 -31 -12 0 -16 9 -9 20 7 11 1 21 -14 21 -14 1 -8 9 14 18 22 9 56 8 76 -3 20 -10 46 -15 57 -12 12 4 -16 25 -61 47 -45 21 -82 46 -82 55 0 9 10 10 22 3 42 -26 58 38 17 66 -47 33 -51 65 -8 65 25 0 26 8 8 43 -13 23 -15 48 -6 55 24 17 21 108 -3 129 -12 10 -9 13 8 8 16 -4 31 -24 34 -45 15 -103 28 -125 77 -125 52 0 84 45 47 67 -13 9 -17 5 -8 -9 22 -35 -19 -28 -50 9 -61 73 -40 134 25 75 35 -31 37 -31 37 11 0 25 9 39 20 32 12 -7 15 -21 9 -31 -6 -11 -1 -19 11 -19 21 0 135 -229 170 -340 34 -108 114 -263 141 -273 63 -24 23 -87 -146 -227 -215 -179 -210 -156 -61 -262 158 -111 290 -173 239 -112 -16 20 -15 34 2 52 20 20 14 22 -28 12 -65 -16 -123 56 -64 78 60 24 12 35 -61 15 -72 -20 -106 13 -50 48 16 10 14 19 -4 30 -15 9 -20 24 -11 33 9 9 28 -1 43 -21 25 -34 28 -32 41 35 7 39 20 67 29 62 8 -5 27 4 41 21 14 17 37 26 51 21 16 -6 22 1 15 19 -8 20 2 29 30 29 29 0 38 9 30 30 -6 17 0 30 13 30 19 0 19 7 2 28 -18 21 -18 30 0 36 18 6 18 18 0 52 -13 25 -18 54 -12 64 7 11 3 31 -8 45 -11 14 -46 57 -77 95 -31 39 -74 111 -94 160 -21 50 -52 104 -69 121 -18 17 -44 52 -59 78 l-27 46 62 -43 c33 -24 66 -52 73 -63 6 -10 37 -19 68 -19 43 0 90 -31 184 -120 70 -66 135 -120 145 -120 22 0 92 -80 92 -104 0 -10 -10 -12 -23 -4 -14 9 -18 5 -9 -9 8 -13 39 -23 68 -23 42 -1 47 -5 24 -20 -25 -16 -24 -19 6 -20 20 0 32 -7 28 -15 -5 -8 9 -33 32 -55 34 -34 38 -35 28 -5 -9 23 -3 35 17 35 16 0 29 14 29 30 0 18 19 30 47 30 49 0 66 57 25 85 -13 8 -2 15 24 15 26 0 41 -9 34 -20 -7 -11 2 -20 20 -20 19 0 29 -11 24 -25 -5 -14 -19 -23 -32 -20 -12 3 -22 -3 -22 -14 0 -10 -20 -22 -45 -27 -28 -5 -16 -10 30 -11 41 -2 75 5 75 15 0 30 97 19 109 -13 9 -22 18 -24 39 -7 20 17 33 15 50 -6 15 -18 17 -33 4 -40 -10 -7 -23 -1 -28 13 -4 14 -5 5 -1 -19 5 -28 -5 -46 -28 -52 -19 -5 -11 -9 19 -8 29 2 49 9 44 17 -5 8 -1 19 8 25 9 5 32 -17 51 -49 31 -51 40 -55 75 -34 39 25 39 25 0 31 -25 4 -36 17 -29 35 7 17 -1 29 -19 29 -16 0 -35 13 -40 28 -15 38 51 53 83 19 14 -16 35 -22 48 -14 14 9 17 2 9 -20 -7 -18 -5 -33 5 -33 10 0 21 10 25 23 11 31 116 -38 116 -75 0 -16 8 -28 19 -28 24 0 83 -120 69 -142 -5 -10 0 -18 13 -18 14 0 19 17 13 40 -9 35 -5 37 33 16 24 -12 48 -23 53 -24 44 -8 -14 -441 -81 -602 -9 -22 -32 -89 -50 -150 -43 -136 -169 -400 -192 -400 -9 0 -17 -8 -17 -18 0 -32 -202 -362 -221 -362 -11 0 -19 19 -19 41 0 23 -8 36 -18 30 -10 -6 -14 -45 -8 -86 5 -41 10 -95 10 -120 0 -34 12 -45 49 -45 27 0 44 9 37 20 -11 19 22 100 50 120 7 6 37 60 66 120 51 105 106 204 139 249 73 100 120 189 129 245 6 36 18 66 26 66 15 0 44 80 51 141 2 17 13 62 26 100 12 38 27 101 32 139 16 118 42 187 72 195 24 7 24 4 -1 -13 -19 -14 -23 -28 -10 -37 11 -8 22 -33 24 -55 3 -22 11 -80 18 -130 15 -102 15 -88 1 -257 -6 -70 -21 -139 -34 -154 -12 -15 -16 -38 -8 -51 9 -15 7 -19 -6 -11 -12 8 -28 -5 -35 -27 -7 -22 -21 -40 -31 -40 -11 0 -19 -8 -19 -18 0 -26 66 -13 76 15 11 35 44 6 44 -39 0 -89 -117 -217 -185 -201 -23 5 -17 -23 16 -66 16 -21 29 -28 29 -15 0 13 18 42 40 64 22 22 40 34 40 27 0 -8 22 7 49 32 32 30 61 41 84 32 29 -10 30 -17 9 -30 -15 -9 -21 -27 -13 -39 7 -12 3 -22 -10 -22 -13 0 -18 -13 -12 -29 6 -17 -4 -39 -23 -50 -32 -19 -32 -20 1 -20 19 -1 35 -10 35 -21 0 -11 -14 -20 -31 -20 -34 0 -89 -46 -89 -75 0 -25 -113 -105 -148 -105 -16 0 -35 -9 -42 -20 -29 -46 118 -17 201 41 89 61 109 53 67 -25 -19 -36 -18 -40 11 -29 19 7 38 13 42 13 5 0 14 36 21 80 19 116 104 120 100 5 -1 -41 -11 -82 -22 -90 -11 -8 21 -15 71 -15 l92 0 -35 145 c-115 486 -146 648 -160 845 -57 776 -94 885 -348 1016 -245 127 -834 364 -1030 415 -49 12 -157 55 -240 93 -82 39 -235 100 -339 136 -204 71 -387 199 -459 322 l-38 63 66 118 c54 96 105 231 162 423 4 15 16 21 27 15 60 -37 189 153 138 204 -17 17 -17 45 -1 109 12 47 36 145 54 216 65 259 18 472 -90 405 -75 -47 -84 11 -20 130 64 119 52 625 -19 775 -70 149 -105 251 -112 325 -10 106 -75 197 -161 226 -89 29 -200 139 -217 215 -17 75 -85 106 -122 55 -19 -25 -27 -27 -35 -7 -9 20 -16 20 -32 -4 -19 -26 -21 -25 -22 5 0 19 -34 56 -75 82 -42 26 -88 62 -103 80 -34 41 -139 43 -155 3 -6 -16 -19 -25 -29 -19 -10 7 -13 21 -7 31 20 31 -33 80 -72 68 -20 -7 -41 -3 -47 7 -14 23 -127 24 -182 2z m-26 -138 c-24 -33 -44 -67 -44 -76 0 -10 -18 -37 -41 -61 -31 -34 -36 -53 -21 -79 17 -28 21 -29 23 -5 1 18 9 12 20 -15 37 -92 78 -4 79 169 1 71 31 69 60 -4 15 -38 39 -73 53 -79 33 -12 35 -92 4 -160 -46 -100 -65 -59 -57 116 2 47 -4 73 -16 65 -11 -7 -16 -32 -10 -57 8 -36 5 -39 -12 -15 -16 23 -20 5 -14 -70 7 -110 27 -170 54 -170 10 0 18 -24 18 -53 0 -30 21 -72 49 -98 32 -30 46 -60 40 -92 -7 -40 -5 -39 15 8 13 30 35 55 50 55 15 0 26 22 26 51 0 63 72 60 149 -6 28 -24 62 -39 77 -34 15 6 50 2 78 -9 35 -13 58 -12 73 3 17 17 24 10 25 -26 l2 -49 16 50 c27 86 23 105 -20 94 -44 -11 -45 -11 -28 35 11 27 18 28 45 7 30 -24 30 -22 4 14 -16 22 -32 44 -35 48 -3 4 -19 -4 -36 -18 -26 -22 -30 -13 -30 66 0 51 9 97 20 104 11 7 20 26 20 42 0 17 -9 25 -20 18 -11 -7 -14 1 -7 19 9 25 18 27 39 9 20 -17 28 -17 28 0 0 12 10 22 21 22 37 0 84 -59 72 -91 -7 -16 -4 -29 5 -29 34 0 39 -58 7 -84 -28 -23 -31 -20 -20 19 6 25 3 50 -7 56 -10 6 -18 -21 -18 -60 0 -39 9 -71 19 -71 11 0 14 -16 8 -35 -10 -28 -6 -27 20 5 26 33 32 34 32 8 1 -17 -18 -49 -41 -69 -28 -26 -39 -55 -33 -94 4 -30 3 -55 -4 -55 -6 0 -23 -18 -37 -41 -25 -40 -24 -40 35 -9 43 22 61 46 61 81 0 27 9 49 20 49 25 0 25 -5 0 -69 -20 -55 -4 -67 37 -26 20 20 23 18 12 -10 -7 -19 -27 -35 -43 -35 -23 0 -27 -13 -17 -52 7 -30 5 -47 -6 -40 -21 13 -75 -43 -58 -60 7 -6 30 -2 52 10 37 20 39 17 31 -31 -13 -72 30 -96 76 -43 42 49 46 64 11 44 -14 -8 -7 6 15 32 22 26 29 40 15 32 -50 -29 7 83 79 154 20 19 37 60 38 90 2 69 18 171 29 181 4 5 17 -15 28 -44 11 -29 27 -53 36 -53 8 0 17 -41 20 -91 4 -58 -2 -87 -15 -79 -11 7 -20 37 -21 66 l-1 54 -30 -57 c-17 -31 -26 -68 -21 -83 6 -15 -3 -32 -21 -39 -22 -8 -27 -27 -18 -66 7 -30 15 -68 18 -85 15 -90 64 -180 93 -170 21 6 18 0 -7 -19 -25 -20 -32 -40 -21 -65 8 -20 19 -58 23 -86 4 -27 16 -76 26 -107 20 -59 12 -93 -21 -93 -11 0 -19 18 -19 40 0 45 -16 50 -60 18 -25 -18 -25 -20 5 -11 22 8 35 1 35 -16 0 -42 34 -56 78 -32 32 17 40 15 42 -14 12 -209 41 -526 58 -655 38 -281 -41 -715 -118 -644 -14 13 -21 14 -14 3 6 -12 0 -55 -13 -95 -26 -75 -62 -128 -50 -74 4 17 -6 30 -23 30 -16 0 -29 -16 -27 -35 1 -19 -5 -35 -15 -35 -10 0 -17 -20 -16 -45 2 -38 4 -39 12 -7 8 29 14 32 27 11 12 -21 22 -21 45 -3 24 20 27 16 19 -26 -7 -38 -16 -46 -35 -30 -19 16 -28 6 -38 -39 -6 -34 -18 -88 -24 -121 -7 -33 -21 -60 -30 -60 -10 0 -18 -9 -18 -20 0 -11 -18 -38 -40 -60 -40 -40 -40 -40 -40 0 0 22 -9 40 -20 40 -11 0 -20 13 -20 28 0 16 -11 33 -25 39 -18 7 -18 10 -1 11 13 1 37 -12 55 -29 43 -43 43 9 1 91 -16 31 -25 70 -19 86 6 16 -3 34 -21 41 -18 7 -27 22 -20 33 7 11 4 20 -7 20 -10 0 -24 14 -31 31 -7 20 -4 26 12 17 15 -10 18 -4 9 19 -7 18 -19 48 -26 66 -9 21 -6 29 7 20 13 -7 25 13 31 52 12 75 12 74 -38 84 -22 4 -73 26 -114 49 -42 24 -83 38 -92 32 -9 -5 -22 4 -28 20 -7 17 -35 30 -64 30 -36 0 -56 13 -63 40 -6 22 -25 41 -43 42 -150 8 -183 7 -183 -5 0 -7 11 -17 25 -22 19 -6 19 -18 -1 -57 -14 -26 -21 -32 -15 -12 6 21 -2 40 -20 47 -17 7 -27 24 -21 39 32 83 -165 148 -293 98 -42 -17 -46 18 -10 97 21 48 34 54 88 46 63 -10 98 46 92 147 -1 20 10 16 34 -15 32 -38 40 -40 61 -15 22 27 14 38 -23 33 -44 -6 -63 62 -32 114 35 59 18 120 -26 92 -19 -12 -22 -6 -10 23 24 55 39 161 21 144 -8 -8 -31 5 -51 30 -30 38 -58 44 -202 49 l-167 5 127 -41 c130 -42 167 -75 42 -37 -99 30 -250 24 -321 -13 -34 -18 -67 -27 -73 -21 -6 6 29 29 77 51 48 22 75 40 58 40 -58 0 -197 -76 -230 -126 -33 -50 -25 -105 11 -82 11 6 19 -1 19 -15 0 -15 -18 -38 -40 -51 -22 -14 -40 -36 -40 -48 0 -13 17 -8 39 12 38 35 121 28 121 -10 0 -58 347 7 404 76 23 28 21 29 -21 7 -84 -45 -244 -84 -289 -71 -59 18 -123 88 -101 109 32 32 507 43 507 12 0 -56 -219 -191 -314 -194 -31 0 -45 -6 -31 -11 27 -11 35 -67 9 -67 -8 0 -15 -18 -15 -40 0 -22 11 -40 25 -40 14 0 26 7 26 16 0 9 33 32 73 51 54 26 67 41 50 58 -16 16 -12 28 14 43 20 12 67 42 105 67 75 50 136 61 103 20 -11 -14 -26 -59 -33 -101 -10 -54 -44 -105 -121 -182 -122 -122 -183 -207 -162 -227 7 -8 31 8 52 35 l38 50 51 -55 c28 -30 58 -55 66 -55 45 1 102 27 93 42 -6 10 7 18 29 18 62 0 70 -37 13 -63 -28 -13 -51 -29 -51 -36 0 -6 -34 -30 -75 -51 -41 -22 -109 -64 -151 -94 -42 -29 -89 -49 -105 -43 -37 14 -65 -91 -30 -113 19 -11 20 -19 2 -30 -13 -8 -18 -28 -12 -45 16 -40 -7 -109 -30 -94 -11 6 -19 2 -19 -10 0 -11 7 -21 15 -21 8 0 15 -31 15 -70 0 -38 -9 -70 -19 -70 -10 0 -8 -11 5 -24 13 -13 23 -42 23 -65 -2 -41 -2 -41 -19 -1 -16 38 -17 37 -19 -6 -1 -32 -9 -42 -26 -31 -17 10 -17 4 2 -19 15 -18 22 -48 15 -67 -11 -26 -8 -28 16 -9 33 27 57 2 34 -35 -34 -54 -122 9 -122 88 0 44 -8 67 -21 58 -26 -16 -83 29 -67 54 6 10 -1 34 -15 52 -19 23 -20 28 -2 18 14 -9 25 -6 25 5 0 11 -8 24 -17 30 -9 6 -14 74 -12 152 4 123 -1 145 -38 170 -53 38 -80 38 -66 1 13 -35 -37 -83 -56 -52 -8 12 -4 21 8 21 11 0 21 10 21 21 0 12 -9 16 -20 9 -11 -7 -21 -1 -22 14 -1 14 -9 4 -17 -24 l-15 -50 -15 60 c-8 33 -19 74 -26 90 -6 17 -15 53 -19 80 -5 28 -21 70 -37 93 -48 75 -95 324 -79 425 20 133 28 503 10 492 -9 -5 -21 4 -27 20 -13 32 52 78 78 54 8 -8 9 -3 1 11 -8 14 -7 25 2 25 25 0 150 217 137 238 -6 10 2 28 18 41 16 13 34 50 41 83 7 32 31 68 52 79 22 12 33 31 25 43 -8 13 -4 17 9 8 13 -7 34 5 48 27 14 23 37 41 51 41 40 0 29 36 -15 50 -37 12 -131 -33 -111 -53 6 -5 -21 -9 -58 -9 -63 0 -68 4 -58 54 11 55 -20 96 -44 57 -29 -47 11 -159 57 -159 71 -1 102 -29 65 -59 -17 -14 -31 -39 -31 -54 0 -18 -18 -9 -50 25 -27 30 -50 42 -50 28 0 -45 -26 -3 -32 50 -3 28 3 46 13 39 11 -6 19 -2 19 10 0 12 -16 28 -35 35 -43 15 -105 77 -105 105 0 11 -20 18 -45 16 -39 -4 -46 6 -51 70 -4 41 2 75 13 75 11 0 17 -22 14 -49 -3 -28 1 -46 9 -41 16 10 47 127 43 162 -2 12 9 21 25 21 15 0 24 -11 19 -24 -14 -37 69 -189 103 -189 17 0 30 18 30 41 0 35 6 37 42 18 36 -19 40 -17 32 14 -6 20 -16 79 -23 130 -8 54 -25 98 -42 105 -39 14 -37 52 2 52 21 0 29 15 25 45 -5 35 4 45 41 47 26 2 55 15 65 30 31 49 19 -67 -12 -122 -32 -55 -43 -131 -12 -83 12 19 20 7 27 -40 12 -79 -5 -121 -27 -66 -13 33 -15 30 -17 -16 0 -30 7 -55 17 -55 10 0 8 -22 -5 -50 -13 -27 -31 -50 -40 -50 -10 0 -6 -14 8 -31 20 -25 29 -26 42 -5 12 19 16 17 17 -9 0 -23 16 -35 47 -35 27 0 83 -12 125 -27 90 -32 200 -22 216 20 8 21 3 24 -23 10 -67 -34 -169 0 -153 51 10 34 10 34 -11 1 -29 -45 -64 -46 -47 -2 9 25 5 31 -17 22 -17 -6 -31 -1 -32 12 -4 86 -29 204 -47 225 -12 15 -15 37 -7 50 8 13 14 49 13 81 -1 31 9 62 21 70 14 9 17 2 9 -19 -7 -18 -5 -37 5 -43 19 -12 61 94 61 154 0 34 -5 36 -31 14 -17 -14 -26 -37 -21 -51 6 -16 -1 -22 -17 -16 -19 8 -22 29 -10 81 15 69 39 113 39 73 0 -35 100 -4 101 31 0 28 5 27 30 -6 32 -42 109 -58 109 -22 0 33 65 83 100 76 17 -3 51 27 76 67 26 39 53 66 60 59 7 -7 3 -19 -9 -27 -42 -27 -107 -172 -87 -192 28 -28 25 -70 -6 -101 -22 -22 -31 -15 -54 36 l-28 63 -20 -54 c-10 -29 -35 -57 -55 -63 -46 -12 -49 -120 -6 -193 29 -50 29 -50 19 20 l-10 70 34 -60 c50 -89 49 -180 -2 -203 -23 -11 -31 -17 -18 -14 14 3 30 -3 36 -13 26 -42 68 3 49 52 -19 52 -2 63 37 24 35 -35 32 13 -4 70 -40 64 -62 142 -34 125 12 -7 22 -3 22 9 0 12 10 16 21 9 12 -7 17 -26 11 -41 -6 -16 7 -58 28 -93 27 -43 40 -53 40 -30 0 19 10 35 21 35 12 0 16 -8 10 -18 -6 -10 4 -23 21 -30 24 -9 29 -4 20 19 -9 25 -3 29 31 18 35 -11 41 -7 30 21 -13 33 -11 33 38 1 50 -33 51 -33 31 5 -11 21 -16 44 -10 50 6 6 -3 33 -21 59 -17 27 -26 64 -19 82 7 19 2 33 -10 33 -44 0 -47 -63 -6 -119 l42 -56 -49 0 c-27 0 -49 8 -49 17 0 9 -25 42 -55 73 -49 50 -55 69 -47 156 7 82 11 90 23 49 14 -48 15 -48 17 -5 1 25 12 45 24 45 12 0 18 11 13 24 -13 41 40 166 72 166 16 0 37 7 45 15 37 37 31 -12 -8 -64z m436 -74 c0 -15 14 -27 31 -27 19 0 26 -9 17 -23 -21 -34 -26 -137 -7 -137 8 0 20 11 26 25 5 14 11 4 11 -21 2 -34 -14 -52 -58 -67 -51 -18 -61 -32 -63 -94 l-4 -73 -8 76 c-10 98 -51 88 -67 -18 -11 -72 -29 -28 -19 47 1 14 -7 25 -18 25 -12 0 -22 -18 -23 -40 -5 -72 -8 -80 -28 -84 -11 -2 -23 13 -27 33 -4 23 1 31 17 21 16 -10 21 1 17 34 -6 49 47 125 71 102 6 -7 12 -2 12 11 0 13 -9 23 -20 23 -12 0 -16 21 -9 49 11 41 7 47 -29 37 -29 -7 -42 -27 -42 -62 0 -40 -6 -46 -23 -29 -28 28 33 185 71 185 12 0 34 18 47 40 28 44 125 19 125 -33z m165 -92 c-29 -32 -39 -61 -31 -100 6 -31 2 -55 -9 -55 -74 0 -21 196 53 199 21 1 17 -12 -13 -44z m282 -170 c-12 -49 -46 -92 -62 -77 -7 7 55 132 67 132 5 0 3 -25 -5 -55z m73 -70 c-22 -36 -40 -90 -40 -121 0 -36 -8 -51 -22 -43 -45 28 19 229 72 229 24 0 21 -13 -10 -65z m-1113 -25 c-20 -52 -59 -47 -55 7 4 71 4 71 37 44 16 -13 24 -36 18 -51z m1178 -78 c-8 -12 -16 -34 -18 -50 -2 -15 -15 -37 -28 -50 -18 -17 -21 -8 -10 38 7 33 13 83 13 110 -1 48 0 48 28 12 16 -21 23 -48 15 -60z m-1912 12 c13 -8 28 -37 32 -64 5 -28 5 -39 1 -25 -5 14 -24 25 -43 25 -20 0 -36 17 -38 40 -3 42 10 49 48 24z m-153 -397 c0 -19 -6 -28 -13 -21 -7 8 -25 4 -39 -8 -27 -22 1 -118 35 -118 9 0 17 -19 17 -41 0 -33 9 -39 42 -28 37 11 39 8 19 -30 -13 -23 -18 -62 -11 -87 11 -40 7 -39 -35 11 -25 30 -61 55 -79 55 -17 0 -37 13 -43 29 -8 20 -1 26 23 18 31 -9 31 -8 -1 19 -43 35 -46 62 -5 47 17 -7 30 -4 30 6 0 10 -8 21 -18 24 -10 4 -25 41 -33 82 -13 74 -12 75 49 75 45 0 62 -9 62 -33z m2396 -171 c-16 -44 -16 -66 -1 -71 11 -4 16 -25 10 -47 -9 -37 -13 -36 -39 17 -20 43 -22 72 -7 112 29 77 64 68 37 -11z m-2379 -203 c15 -12 46 -24 70 -28 69 -10 80 -37 40 -93 -39 -55 -97 -62 -97 -12 0 17 -19 30 -43 30 -24 0 -51 8 -60 18 -10 11 -3 13 17 6 46 -16 58 45 17 94 -33 41 -7 34 56 -15z m723 -508 c0 -19 -12 -25 -33 -16 -19 7 -41 1 -50 -13 -12 -19 -16 -18 -17 7 0 33 26 50 75 50 14 0 25 -13 25 -28z m129 -16 c21 -16 30 -29 20 -29 -11 0 -39 -6 -64 -13 -36 -9 -45 -3 -45 31 0 49 34 53 89 11z m1641 -136 c-18 -27 -25 -63 -18 -85 11 -31 9 -33 -13 -13 -33 31 -79 33 -79 3 0 -12 13 -17 29 -11 46 17 66 -29 69 -160 1 -89 -6 -126 -26 -133 -42 -16 -53 6 -29 54 13 23 15 35 6 27 -20 -19 -70 120 -55 157 6 16 0 28 -12 28 -12 0 -3 38 22 90 33 68 55 90 90 90 45 0 45 -2 16 -47z m-2680 -113 c7 -12 21 -15 31 -9 11 6 19 1 19 -11 0 -12 20 -49 45 -82 l45 -61 -56 -41 c-42 -30 -50 -47 -34 -66 16 -19 16 -30 1 -40 -12 -7 -16 -21 -10 -31 22 -36 44 -19 57 44 15 79 28 68 41 -36 l10 -82 -84 -11 c-110 -15 -105 -25 -105 228 0 203 9 248 40 198z m-71 -216 c0 -26 -8 -41 -19 -34 -11 7 -19 46 -19 86 2 83 35 36 38 -52z m2698 -167 c-14 -26 -23 -59 -20 -74 3 -15 -4 -21 -16 -14 -30 19 -26 55 11 108 40 58 60 42 25 -20z m-2481 -144 c19 53 21 49 22 -44 3 -152 -42 -200 -79 -86 -15 48 -39 99 -53 113 -53 55 -24 69 32 16 l58 -55 20 56z m2475 5 c7 -12 4 -31 -7 -42 -12 -12 -17 -32 -12 -45 6 -14 -4 -36 -21 -50 -36 -30 -40 -9 -18 97 12 64 34 79 58 40z m-1059 -95 c-12 -19 72 -63 118 -63 18 0 25 13 18 35 -10 33 -10 33 12 0 12 -20 31 -31 41 -24 11 6 19 0 19 -13 0 -14 5 -19 12 -13 16 16 128 -25 128 -47 0 -10 -18 -18 -40 -18 -22 0 -40 9 -40 20 0 11 -8 20 -18 20 -10 0 -13 -18 -8 -40 10 -37 6 -39 -45 -20 -31 12 -70 16 -87 9 -75 -30 -282 -26 -282 5 0 22 -7 25 -25 11 -14 -11 -74 -26 -135 -32 -60 -7 -135 -18 -165 -25 -30 -7 -55 -5 -54 5 1 39 53 83 114 96 36 8 65 24 65 36 0 12 6 16 13 8 8 -7 33 0 57 15 34 23 64 25 130 10 67 -15 94 -13 128 10 50 35 58 38 44 15z m205 -223 c22 0 23 -6 4 -29 -21 -26 -11 -28 72 -19 127 15 208 -170 103 -234 -18 -12 -16 -19 11 -30 19 -7 31 -24 26 -38 -6 -14 3 -44 20 -68 26 -38 26 -42 -3 -42 -18 0 -27 9 -20 20 7 11 2 20 -10 20 -12 0 -18 8 -12 17 6 9 -2 34 -18 55 -16 22 -29 27 -29 13 -1 -14 -14 -25 -31 -25 -16 0 -30 -8 -30 -19 0 -10 14 -32 30 -48 17 -17 30 -40 30 -53 0 -13 16 -18 38 -11 21 7 44 3 51 -8 8 -12 1 -16 -18 -9 -43 17 -40 -31 4 -64 33 -25 33 -27 -1 -27 -22 -1 -31 -11 -24 -26 7 -14 0 -9 -15 10 -33 39 -55 27 -55 -30 0 -27 10 -36 30 -28 17 7 30 4 30 -5 0 -16 -41 -33 -87 -37 -9 -1 -41 -29 -71 -63 -49 -55 -59 -58 -93 -34 -20 15 -51 23 -68 17 -25 -9 -26 -6 -6 16 14 15 25 36 25 47 0 11 -12 3 -28 -18 -15 -21 -23 -50 -18 -64 6 -15 -4 -26 -22 -26 -36 0 -43 41 -12 72 14 14 7 34 -20 63 -22 24 -40 53 -40 64 0 12 -7 21 -16 21 -8 0 -17 19 -19 42 -2 34 2 37 26 17 16 -13 29 -41 29 -61 0 -22 14 -38 32 -38 27 0 28 5 8 30 -23 27 -14 38 24 33 8 -2 9 12 2 31 -8 21 -5 28 9 19 12 -8 28 -4 36 8 7 12 25 17 40 11 15 -6 32 -3 38 7 6 9 -2 22 -18 28 -17 6 -35 2 -42 -9 -8 -13 -21 -13 -38 1 -13 11 -32 14 -41 6 -9 -8 -11 -5 -3 8 12 22 -40 57 -73 50 -27 -6 -6 83 21 92 16 5 25 -11 25 -45 0 -40 9 -51 35 -46 35 8 41 39 16 98 -8 19 0 46 18 64 46 46 24 51 -233 50 -128 0 -245 7 -260 16 -20 12 -20 8 1 -18 16 -19 47 -34 70 -34 61 -1 97 -29 92 -72 -6 -61 0 -91 16 -81 9 5 15 -39 13 -98 -1 -59 6 -103 15 -97 10 6 14 42 10 79 -8 70 11 85 63 52 22 -14 20 -24 -8 -52 -22 -22 -27 -39 -14 -48 12 -7 26 -31 31 -53 7 -26 12 -16 15 30 2 39 12 93 21 120 13 37 15 29 7 -33 -6 -46 -2 -117 9 -157 27 -95 -2 -132 -83 -108 -46 13 -53 11 -36 -10 12 -15 45 -24 72 -21 28 3 50 -2 50 -12 0 -35 -35 -35 -116 1 -46 21 -82 31 -81 24 7 -49 -4 -71 -26 -49 -25 25 26 125 63 125 11 0 20 8 20 19 0 10 -19 15 -42 11 -38 -8 -41 -1 -34 71 4 43 -1 79 -11 79 -10 0 -13 20 -6 45 11 44 10 44 -31 -5 -41 -49 -42 -49 -31 -5 15 61 4 57 -29 -10 -28 -60 -25 -193 5 -174 11 6 20 -14 20 -45 1 -53 2 -54 20 -11 15 39 59 64 59 34 0 -30 -77 -90 -89 -70 -8 12 -22 17 -31 11 -10 -6 -24 21 -31 59 -9 46 -21 66 -36 56 -40 -24 -73 -22 -73 5 0 14 -15 24 -33 23 -18 -2 -37 11 -41 27 -8 26 -6 26 11 1 12 -17 24 -26 28 -20 31 41 79 129 96 174 l19 55 -37 -44 c-21 -24 -44 -39 -51 -32 -6 7 -12 -1 -12 -18 0 -39 -56 -87 -75 -66 -8 8 -4 19 10 24 14 5 25 20 25 33 0 13 18 40 40 58 61 52 33 107 -45 88 -14 -4 -18 -3 -10 2 8 5 15 23 14 42 0 27 -7 25 -38 -12 -49 -59 -74 -58 -35 1 17 26 26 69 20 99 -6 30 -1 81 11 114 13 37 13 61 2 61 -10 0 -19 10 -19 22 0 16 8 17 25 3 14 -11 57 -27 95 -35 39 -8 88 -27 109 -43 54 -37 71 -34 71 13 0 22 -13 40 -30 40 -16 0 -30 9 -30 20 0 23 152 25 270 3 47 -8 121 -4 180 10 55 14 118 21 140 16 22 -5 52 -9 67 -9z m-1217 -60 c0 -11 -18 -36 -39 -54 -30 -25 -34 -40 -18 -60 17 -20 13 -26 -14 -26 -20 0 -30 6 -23 13 8 7 3 26 -9 41 -12 15 -19 30 -15 33 79 62 118 79 118 53z m669 -596 c-12 -28 -17 -26 -28 16 -8 29 -5 56 8 64 26 18 39 -34 20 -80z m2123 -486 c99 -79 219 -140 237 -122 8 8 11 1 8 -15 -5 -21 10 -29 53 -28 38 0 44 -2 16 -7 -38 -7 -41 -16 -26 -57 14 -35 12 -49 -5 -50 -14 -1 -48 -5 -76 -9 -39 -5 -58 7 -84 53 -19 33 -44 54 -55 47 -11 -7 -20 -3 -20 7 0 11 16 24 35 29 19 5 10 7 -20 5 -56 -4 -76 19 -30 34 15 5 -4 36 -50 81 -68 66 -88 94 -68 94 4 0 42 -28 85 -62z m-1652 -449 c0 -75 -73 -204 -125 -221 -60 -19 -314 -22 -302 -3 5 8 22 15 38 15 16 0 30 11 31 25 1 18 4 17 12 -2 9 -23 14 -23 28 0 15 22 21 22 38 -3 17 -25 23 -26 38 -2 11 17 33 23 55 15 32 -11 33 -10 6 12 -50 41 -19 129 61 174 95 52 120 50 120 -10z m-80 -258 c0 -6 -17 -41 -39 -78 -21 -38 -32 -75 -25 -82 7 -7 0 -22 -17 -32 -23 -15 -20 -18 14 -19 54 0 53 -61 -3 -94 -39 -24 -38 -25 7 -25 l47 -1 -47 -42 c-26 -22 -36 -35 -22 -28 15 7 25 0 25 -19 0 -18 -17 -31 -43 -31 -55 0 -33 -24 27 -30 72 -8 73 -8 67 -45 -3 -19 -17 -35 -33 -35 -35 0 -64 -43 -48 -70 18 -28 -17 -25 -49 5 -21 20 -24 20 -13 0 19 -32 -21 -33 -41 0 -36 58 -31 175 7 164 20 -6 16 0 -9 13 -25 13 -45 39 -45 57 0 18 -11 44 -24 57 -19 19 -13 24 25 24 36 1 42 5 21 18 -15 10 -21 27 -14 40 9 13 3 17 -16 10 -40 -16 -88 33 -100 103 -6 31 -21 62 -33 70 -29 17 38 37 181 52 61 6 114 15 118 19 12 11 82 10 82 -1z m-3475 -140 c-6 -31 -85 -67 -85 -39 0 2 15 38 33 81 34 82 70 53 52 -42z m2382 -149 c7 -43 18 -95 23 -115 6 -20 -11 7 -38 62 -28 54 -45 106 -40 115 22 36 44 12 55 -62z m46 -801 c-5 -20 -9 -16 -11 12 -1 23 -14 47 -28 53 -14 5 -27 40 -30 77 l-4 67 41 -89 c22 -49 37 -103 32 -120z"/> <path d="M5104 6114 c-12 -14 -26 -47 -31 -75 -5 -27 -16 -67 -24 -89 -12 -34 -7 -33 36 10 56 55 98 157 54 129 -18 -11 -22 -6 -13 18 15 40 7 42 -22 7z"/> <path d="M3900 5995 c0 -15 -18 -47 -40 -71 -88 -94 36 -414 146 -375 30 10 54 26 54 34 0 9 15 10 33 3 23 -9 29 -5 19 11 -9 14 -33 19 -55 12 -26 -8 -49 0 -68 24 -32 42 -38 75 -10 58 26 -17 45 56 30 117 -13 51 -13 51 -46 11 -32 -39 -33 -36 -32 72 0 61 -7 116 -15 122 -9 5 -16 -3 -16 -18z"/> <path d="M3391 5612 c9 -87 52 -149 71 -102 9 23 16 28 17 12 0 -16 7 -23 14 -16 13 14 -74 154 -95 154 -7 0 -10 -21 -7 -48z"/> <path d="M4460 5306 c0 -13 11 -27 25 -33 19 -7 18 -15 -5 -31 -16 -12 -20 -22 -8 -22 11 0 43 24 70 53 43 47 44 50 6 31 -31 -16 -48 -16 -65 1 -16 16 -23 17 -23 1z"/> <path d="M4320 5220 c0 -11 13 -20 28 -20 16 0 33 -11 39 -25 7 -19 15 -18 30 4 15 21 14 34 -3 45 -35 22 -94 19 -94 -4z"/> <path d="M3849 5185 c-74 -51 -37 -110 51 -84 48 14 48 15 5 17 -50 2 -57 22 -21 58 26 26 -1 33 -35 9z"/> <path d="M4725 5155 c3 -14 -10 -25 -29 -25 -50 -1 -61 -21 -13 -25 23 -1 54 9 69 25 36 35 35 50 -2 50 -16 0 -28 -11 -25 -25z"/> <path d="M5498 5127 c-1 -9 -5 -44 -9 -77 l-7 -60 26 58 c18 40 30 49 38 30 6 -15 12 -18 12 -5 2 26 -57 80 -60 54z"/> <path d="M3648 4952 c-22 -26 -58 -51 -80 -55 -33 -7 -34 -10 -5 -21 30 -12 157 81 157 114 0 24 -33 6 -72 -38z"/> <path d="M4152 4983 c-19 -31 -209 -66 -248 -46 -19 10 -52 11 -74 2 -22 -9 -34 -17 -26 -18 8 0 -21 -35 -64 -76 -85 -82 -147 -204 -128 -254 14 -37 48 -21 48 22 0 84 178 170 317 154 66 -8 112 -4 131 11 19 16 33 17 41 3 8 -12 45 -21 83 -21 l69 0 -8 101 c-4 55 -11 104 -15 108 -21 21 -115 32 -126 14z"/> <path d="M4744 4907 c2 -36 -2 -72 -9 -79 -28 -27 50 -128 80 -104 30 25 50 27 393 47 166 10 234 8 225 -7 -8 -12 9 -47 36 -78 40 -44 50 -49 50 -21 1 20 -14 35 -34 36 -33 0 -33 2 1 21 42 25 14 84 -84 177 -48 45 -162 76 -162 43 0 -21 -81 -20 -186 2 -85 18 -102 16 -140 -19 -100 -91 -141 -97 -129 -21 9 52 4 69 -17 69 -20 0 -27 -20 -24 -66z m234 -39 c-37 -45 -84 -36 -58 11 12 24 33 35 51 28 23 -9 25 -18 7 -39z"/> <path d="M4339 4854 c10 -70 61 -134 61 -76 0 12 10 22 22 22 16 0 15 -10 -2 -30 -14 -17 -20 -37 -13 -43 20 -21 73 35 73 77 0 21 9 33 20 26 11 -7 15 1 9 16 -24 63 -111 79 -100 19 l10 -55 -23 54 c-38 89 -70 83 -57 -10z"/> <path d="M4558 4835 c-13 -45 -10 -75 9 -75 39 1 72 30 57 51 -13 17 -62 36 -66 24z"/> <path d="M4914 4700 c-31 -10 -68 -27 -82 -38 -14 -12 -30 -18 -34 -13 -5 5 -7 -24 -5 -65 5 -97 5 -98 25 -67 20 32 467 39 507 8 16 -12 43 -9 75 8 36 19 40 26 16 27 -21 0 -31 11 -24 28 12 31 -82 112 -130 111 -20 0 -12 -12 23 -30 93 -51 61 -71 -46 -29 -55 22 -129 41 -165 42 l-64 3 60 15 c57 15 56 15 -20 16 -44 0 -105 -7 -136 -16z m253 -90 c13 -34 -18 -41 -38 -9 -8 14 -21 14 -41 -2 -22 -19 -28 -17 -28 9 0 41 91 43 107 2z"/> <path d="M4911 4458 c7 -12 35 -16 63 -9 29 7 44 5 38 -6 -17 -27 31 -41 98 -28 56 11 55 12 -31 38 -109 32 -186 35 -168 5z"/> <path d="M4705 4383 c2 -22 10 -36 18 -31 22 13 72 -94 68 -144 -3 -33 17 -50 93 -79 53 -21 101 -54 107 -73 7 -20 21 -36 33 -36 12 0 6 -18 -13 -39 -27 -30 -45 -35 -72 -20 -62 33 -170 22 -209 -21 -36 -40 -35 -40 28 -27 38 7 83 2 111 -12 47 -26 131 -2 131 37 0 50 85 36 117 -19 33 -59 79 -90 100 -68 7 6 -1 20 -18 30 -20 12 -21 18 -4 19 14 0 25 10 25 21 0 12 -9 16 -20 9 -11 -7 -20 -2 -20 11 0 29 -179 199 -210 199 -33 0 -101 84 -124 152 -25 75 -145 153 -141 91z"/> <path d="M4990 4350 c33 -27 67 -50 75 -50 8 0 15 -13 15 -29 0 -20 12 -25 33 -17 23 9 29 5 19 -11 -10 -15 3 -23 39 -23 45 0 50 5 30 29 -14 16 -18 39 -11 51 8 13 2 21 -13 18 -28 -4 -58 5 -177 54 l-70 29 60 -51z"/> <path d="M5310 4180 c-7 -12 -23 -14 -36 -6 -13 8 2 -14 35 -49 50 -54 91 -68 91 -33 0 6 -11 4 -23 -4 -16 -10 -20 -4 -11 19 8 21 3 33 -16 33 -17 0 -24 12 -17 30 13 34 -4 41 -23 10z"/> <path d="M3693 4110 c-7 -18 0 -30 17 -30 16 0 24 -12 18 -28 -6 -15 -1 -34 10 -41 13 -8 17 -1 10 18 -7 17 -2 31 10 31 12 0 22 14 22 31 0 17 -9 26 -20 19 -11 -7 -20 -3 -20 9 0 32 -34 25 -47 -9z"/> <path d="M3593 4005 c-4 -8 -8 -37 -8 -65 0 -66 79 -70 110 -5 12 25 14 41 5 35 -25 -15 -81 11 -69 32 6 10 2 18 -9 18 -11 0 -24 -7 -29 -15z"/> <path d="M3802 3375 c2 -34 5 -37 12 -10 5 20 17 30 28 24 10 -7 13 -22 5 -33 -8 -13 -4 -16 10 -8 38 23 26 72 -17 72 -29 0 -39 -13 -38 -45z"/> <path d="M4805 6230 c-16 -45 -22 -50 -24 -20 -1 33 -5 35 -21 10 -28 -44 -23 -104 13 -150 30 -38 31 -37 23 25 -5 36 -2 65 7 65 10 0 17 -11 17 -24 0 -18 6 -18 23 -1 16 16 18 43 4 89 l-19 66 -23 -60z"/> <path d="M5000 3059 c0 -11 13 -25 29 -31 16 -6 23 -25 17 -41 -9 -23 -19 -18 -46 23 -28 43 -37 47 -47 21 -16 -42 5 -91 39 -91 15 0 28 -10 28 -21 0 -12 -8 -16 -19 -10 -10 6 -24 3 -30 -7 -7 -11 -30 -16 -51 -12 -30 6 -40 -3 -39 -36 0 -44 1 -44 32 -4 31 39 32 39 21 -6 -9 -41 -7 -43 21 -20 24 19 29 20 18 1 -9 -14 -6 -25 5 -25 11 0 16 -13 9 -30 -6 -16 -2 -30 9 -30 26 0 48 58 31 85 -7 12 -5 16 6 9 11 -6 20 21 21 62 1 40 12 76 24 80 13 4 9 25 -11 55 -33 50 -67 65 -67 28z"/> <path d="M4300 3014 c0 -25 -11 -57 -24 -70 -13 -13 -15 -24 -5 -24 10 0 6 -10 -11 -22 -27 -19 -27 -20 0 -13 33 9 102 136 87 160 -19 31 -47 13 -47 -31z"/> <path d="M4880 2760 c0 -9 14 -21 30 -27 17 -7 30 -28 30 -47 1 -29 4 -30 18 -8 10 16 14 40 9 53 -11 28 -87 54 -87 29z"/> <path d="M4220 2381 c0 -10 8 -24 18 -30 10 -6 14 -28 8 -49 -5 -21 2 -44 15 -53 16 -10 20 -7 11 8 -8 13 -5 23 7 23 11 0 21 -10 21 -22 0 -12 12 -18 27 -12 15 6 53 -7 85 -28 63 -41 118 -51 97 -17 -7 11 -2 34 12 50 19 23 19 29 -1 29 -13 0 -19 13 -13 29 17 45 -20 56 -101 30 -68 -23 -76 -21 -102 18 -29 43 -84 59 -84 24z"/> <path d="M5803 2357 c26 -23 45 -49 42 -59 -3 -10 3 -18 14 -18 51 0 5 110 -48 114 l-55 4 47 -41z"/> <path d="M3180 2240 c0 -11 -13 -20 -30 -20 -42 0 -37 -26 9 -55 25 -15 44 -17 51 -4 7 11 20 15 29 10 9 -6 29 5 44 23 24 30 22 32 -13 18 -68 -25 -80 -23 -74 13 3 19 1 35 -5 35 -6 0 -11 -9 -11 -20z"/> <path d="M2517 2045 c30 -5 42 -18 35 -37 -14 -37 17 -36 49 3 14 17 37 26 52 21 14 -6 31 -2 37 7 6 10 -41 17 -105 16 -63 -1 -94 -6 -68 -10z"/> <path d="M5953 1989 c7 -17 25 -27 40 -21 15 6 27 2 27 -9 0 -24 74 -25 89 -1 6 10 -7 14 -29 8 -24 -6 -40 -1 -40 14 0 13 -13 19 -30 13 -16 -7 -30 -3 -30 8 0 10 -9 19 -19 19 -11 0 -14 -14 -8 -31z"/> <path d="M3737 1908 c-29 -28 -27 -44 25 -175 31 -78 57 -167 57 -196 1 -30 14 -79 30 -110 25 -50 102 -447 122 -633 7 -64 12 -91 52 -294 11 -60 23 -123 26 -140 3 -16 13 -66 22 -110 22 -103 22 -108 26 -185 2 -52 11 -65 46 -65 45 0 44 139 -3 320 -10 39 -23 102 -28 140 -11 81 -110 550 -183 873 -52 226 -91 507 -70 507 6 0 11 23 11 50 0 60 -81 71 -133 18z"/> <path d="M5175 1825 c-17 -52 -24 -107 -16 -122 8 -15 8 -64 0 -109 -8 -45 -6 -140 4 -213 37 -254 14 -352 -176 -761 -177 -380 -181 -390 -236 -536 -31 -85 -31 -87 9 -80 23 3 42 15 42 26 1 11 8 29 17 40 8 11 22 45 29 77 7 31 46 125 85 210 251 537 279 648 285 1153 2 124 9 171 22 150 15 -24 24 -18 43 34 14 35 41 68 61 73 49 13 48 105 -3 132 -88 47 -133 27 -166 -74z"/> <path d="M6430 1900 c-7 -11 1 -20 17 -20 19 0 26 -13 20 -37 -6 -23 2 -42 21 -50 33 -12 43 9 17 35 -8 9 -16 24 -17 34 -2 10 -4 27 -5 38 -2 11 -11 20 -22 20 -10 0 -24 -9 -31 -20z"/> <path d="M2144 1845 c-23 -30 -44 -64 -46 -75 -1 -11 -11 -42 -21 -70 -14 -42 -13 -45 8 -18 14 17 39 37 55 43 25 10 25 12 1 13 -21 2 -18 10 10 32 38 29 38 30 1 17 -27 -10 -34 -7 -24 10 8 12 27 23 43 23 18 0 23 12 15 33 -9 24 -6 29 14 17 17 -11 21 -8 12 7 -19 31 -20 31 -68 -32z"/> <path d="M2590 1866 c-10 -24 -18 -28 -24 -11 -12 32 -46 12 -46 -27 0 -17 9 -25 20 -18 11 7 20 1 20 -14 0 -14 14 0 30 32 17 32 27 62 23 66 -5 4 -15 -8 -23 -28z"/> <path d="M1981 1860 c-23 -13 -22 -22 4 -48 42 -42 55 -40 55 7 0 48 -23 64 -59 41z"/> <path d="M2968 1848 c5 -36 55 -64 115 -67 24 -1 30 11 23 39 -6 22 -27 40 -47 40 -20 0 -49 5 -66 12 -20 7 -28 0 -25 -24z"/> <path d="M3271 1835 c-28 -92 -28 -153 0 -142 19 7 25 27 17 57 -6 25 -2 52 10 59 12 7 22 22 22 32 0 28 -40 23 -49 -6z"/> <path d="M6705 1846 c-14 -5 -25 -21 -25 -36 0 -33 60 -57 61 -24 1 13 10 6 19 -16 17 -39 17 -39 19 3 1 48 -37 86 -74 73z"/> <path d="M5890 1806 c-40 -5 -68 -25 -84 -59 -20 -43 -19 -49 7 -39 17 7 39 12 49 12 10 0 18 16 18 35 1 24 5 27 16 11 11 -18 22 -13 40 15 13 21 22 38 19 36 -3 -2 -32 -7 -65 -11z"/> <path d="M7319 1741 c12 -21 15 -55 7 -75 -13 -33 -11 -33 25 2 26 26 31 41 15 47 -13 4 -19 21 -13 36 7 18 -1 29 -22 29 -26 0 -28 -8 -12 -39z"/> <path d="M6460 1693 c0 -4 18 -27 40 -53 21 -25 35 -52 29 -61 -5 -9 1 -23 14 -31 14 -9 18 -6 9 9 -9 15 1 23 27 23 30 0 41 12 40 45 -2 40 -3 41 -17 7 -13 -35 -18 -34 -71 15 -54 51 -71 61 -71 46z"/> <path d="M2325 1648 c7 -6 0 -53 -16 -103 -15 -51 -23 -99 -18 -107 5 -8 2 -18 -8 -21 -9 -4 -22 -38 -29 -77 l-13 -70 39 47 c23 27 40 77 40 115 0 51 9 68 35 68 30 1 31 4 5 22 -23 16 -24 24 -5 31 39 16 31 107 -8 107 -19 0 -28 -5 -22 -12z"/> <path d="M2181 1544 c-47 -132 -48 -135 -26 -114 24 23 73 169 61 181 -5 4 -20 -26 -35 -67z"/> <path d="M2551 1506 c-11 -54 -19 -66 -32 -45 -10 16 -19 19 -19 6 0 -12 14 -33 30 -47 24 -20 30 -20 30 3 1 22 3 22 18 0 12 -19 19 -13 27 25 5 29 1 52 -9 52 -10 0 -13 18 -6 40 7 22 4 40 -6 40 -11 0 -26 -33 -33 -74z"/> <path d="M6897 1543 c-4 -11 -36 -24 -71 -29 -35 -6 -74 -17 -87 -25 -13 -8 -31 -2 -41 13 -13 20 -17 21 -18 3 0 -15 -26 -25 -62 -25 -54 0 -59 -4 -38 -30 14 -16 18 -30 10 -30 -8 0 -4 -13 9 -29 14 -16 19 -39 11 -50 -7 -12 2 -27 20 -34 18 -7 28 -24 22 -38 -5 -15 0 -30 12 -34 12 -4 22 -36 24 -71 1 -35 10 -64 19 -64 10 0 12 -13 6 -30 -7 -18 0 -30 18 -30 33 0 36 -17 10 -60 -14 -21 -7 -43 23 -75 l43 -45 -42 0 c-38 0 -96 117 -113 228 -2 15 -19 48 -37 74 -31 45 -32 42 -2 -52 50 -161 57 -218 25 -200 -17 10 -21 9 -11 -2 9 -10 27 -18 40 -18 13 0 26 -20 29 -45 8 -52 48 -58 92 -14 30 30 25 74 -14 124 -12 16 -12 25 1 25 12 0 6 47 -15 115 -20 63 -39 129 -43 145 -4 17 -11 35 -17 40 -33 33 -76 160 -58 171 23 14 154 33 253 36 36 2 65 8 65 15 0 24 -56 60 -63 41z"/> <path d="M5720 1494 c-41 -33 -47 -74 -10 -74 17 0 30 16 30 35 1 27 4 29 18 8 12 -19 21 -21 31 -5 31 50 -20 76 -69 36z"/> <path d="M6282 1487 c-3 -57 40 -91 79 -64 24 17 23 19 -6 10 -23 -8 -35 -1 -35 19 0 18 9 24 23 16 15 -9 18 -5 9 9 -8 13 -22 19 -32 13 -9 -6 -21 1 -27 15 -5 14 -11 6 -11 -18z"/> <path d="M4067 1465 c11 -54 6 -55 -37 -13 -29 30 -31 28 -18 -25 7 -31 36 -79 64 -106 l50 -48 -14 86 c-7 48 -23 102 -34 119 -17 26 -19 24 -11 -13z"/> <path d="M7500 1450 c0 -16 16 -30 35 -30 27 -1 29 -5 8 -18 -21 -13 -19 -19 8 -30 67 -25 57 41 -11 84 -33 20 -40 19 -40 -6z"/> <path d="M6761 1436 c-39 -14 -42 -21 -20 -48 22 -26 21 -34 -2 -49 -25 -16 -24 -18 3 -19 47 0 59 21 37 63 -16 29 -13 37 10 37 17 0 30 -7 29 -15 -8 -47 7 -62 57 -56 30 4 84 7 120 9 36 1 65 10 65 20 0 16 -94 12 -185 -7 -19 -4 -40 1 -46 11 -6 10 5 19 25 20 21 1 26 5 11 11 -14 6 -21 17 -16 25 12 20 -32 19 -88 -2z"/> <path d="M5813 1375 c9 -14 18 -37 20 -52 8 -50 88 -69 101 -23 6 21 4 23 -8 6 -24 -33 -67 -2 -71 51 -2 24 -16 43 -30 43 -17 0 -21 -10 -12 -25z"/> <path d="M6443 1370 c-1 -22 6 -53 17 -70 17 -26 19 -25 20 4 0 18 16 37 35 42 19 5 15 7 -9 4 -26 -2 -48 9 -53 28 -6 23 -9 21 -10 -8z"/> <path d="M6333 1350 c-23 -22 -32 -24 -40 -5 -6 15 -10 11 -11 -10 -1 -22 13 -35 38 -35 22 0 41 11 41 25 1 14 11 5 23 -20 12 -25 32 -45 43 -45 13 0 12 9 -3 24 -13 13 -24 40 -24 60 0 44 -27 46 -67 6z"/> <path d="M7380 1343 c0 -30 11 -34 65 -25 52 8 56 12 20 18 -25 4 -40 15 -34 25 6 11 -3 19 -20 19 -17 0 -31 -16 -31 -37z"/> <path d="M5620 1280 c20 -13 22 -19 5 -20 -14 0 -25 -9 -25 -19 0 -11 14 -15 30 -8 17 6 30 1 30 -11 0 -12 14 -22 30 -22 17 0 30 9 30 20 0 11 -13 20 -28 20 -15 0 -33 14 -39 30 -7 17 -23 30 -37 30 -18 -1 -17 -6 4 -20z"/> <path d="M6120 1250 c0 -65 -64 -112 -104 -76 -20 18 -36 22 -36 10 0 -40 129 -78 150 -45 21 35 29 141 10 141 -11 0 -20 -13 -20 -30z"/> <path d="M1572 1209 c-6 -18 -3 -26 8 -19 11 7 14 -2 7 -22 -9 -22 -5 -31 13 -25 47 16 65 97 21 97 -20 0 -42 -14 -49 -31z"/> <path d="M1964 1223 c-34 -22 -55 -154 -26 -172 21 -13 32 39 23 105 -2 15 7 40 20 55 27 32 21 36 -17 12z"/> <path d="M7424 1208 c-19 -21 -20 -38 -4 -68 30 -57 51 -50 56 19 5 68 -16 88 -52 49z"/> <path d="M6262 1072 c-3 -139 0 -148 37 -138 22 6 36 19 29 29 -6 10 -21 11 -34 3 -16 -9 -15 -2 2 18 21 26 21 34 0 42 -18 8 -16 11 6 12 28 2 30 14 12 92 -30 131 -49 110 -52 -58z"/> <path d="M2220 1143 c0 -14 -19 -20 -48 -15 -46 8 -90 -37 -62 -64 5 -6 10 1 10 15 0 16 15 22 39 15 40 -10 97 36 74 60 -7 7 -13 2 -13 -11z"/> <path d="M7092 1128 c12 -5 18 -32 13 -59 -7 -38 -3 -47 20 -38 40 15 21 110 -22 107 -18 0 -23 -5 -11 -10z"/> <path d="M7306 1050 c-15 -65 -14 -90 2 -91 12 0 6 -9 -13 -21 -22 -12 -35 -44 -35 -84 -1 -101 -21 -151 -63 -158 -34 -5 -41 -25 -46 -136 -4 -72 -14 -166 -22 -210 -10 -57 -8 -74 8 -60 12 12 25 43 30 70 5 34 20 49 45 46 36 -3 36 -2 -1 25 -21 16 -28 29 -14 29 38 0 70 103 39 123 -19 12 -16 16 11 17 24 0 33 10 27 28 -7 17 5 32 30 39 27 7 37 21 29 41 -6 17 -3 36 6 41 9 6 13 28 7 49 -5 21 0 55 11 75 17 28 22 30 23 7 0 -26 3 -26 19 -1 11 18 10 44 -3 68 -34 65 -42 153 -12 153 19 1 18 6 -4 20 -47 30 -52 26 -74 -70z"/> <path d="M2402 1106 c-1 -14 -14 -20 -28 -15 -14 5 -43 -4 -65 -20 -35 -27 -35 -30 -4 -30 19 -1 35 8 35 19 0 42 40 18 41 -25 2 -45 2 -45 21 3 10 27 15 58 10 70 -6 14 -9 13 -10 -2z"/> <path d="M5869 1082 c24 -39 -30 -138 -70 -127 -24 6 -39 0 -39 -16 0 -14 -7 -19 -15 -11 -31 31 -14 63 45 85 l60 24 -54 1 c-29 1 -59 -6 -65 -17 -7 -10 -36 -11 -70 -1 -32 9 -63 11 -69 5 -22 -22 12 -45 66 -45 36 0 55 -11 55 -30 0 -36 -75 -40 -109 -6 -19 19 -24 15 -24 -18 0 -37 10 -42 75 -37 97 8 115 -4 73 -51 -37 -41 -12 -54 28 -14 19 19 24 16 24 -10 0 -19 9 -34 20 -34 11 0 20 8 20 19 0 10 -9 24 -20 31 -25 16 -26 52 -1 45 10 -3 32 13 49 35 17 22 31 29 31 15 1 -14 11 -25 23 -25 16 0 16 8 -1 28 -15 18 -18 56 -10 100 9 49 6 72 -10 72 -13 0 -18 -8 -12 -18z"/> <path d="M7388 1057 c-9 -15 -5 -18 12 -7 20 12 23 7 14 -18 -8 -20 -6 -29 6 -22 11 7 20 3 20 -9 0 -11 10 -21 22 -21 16 0 15 9 -2 30 -19 22 -19 30 -1 30 13 0 18 9 11 20 -17 27 -64 25 -82 -3z"/> <path d="M2572 1028 c-20 -53 -12 -60 21 -18 30 39 31 39 17 -10 -11 -40 -9 -45 10 -26 27 25 14 86 -17 86 -10 0 -24 -14 -31 -32z"/> <path d="M6128 1012 c8 -23 0 -47 -23 -63 -19 -14 -28 -33 -20 -41 9 -8 27 -1 40 16 14 17 43 41 65 53 34 19 25 28 -23 21 -7 -1 -21 11 -32 25 -14 20 -15 17 -7 -11z"/> <path d="M5973 1006 c-24 -24 -13 -45 17 -33 19 7 30 -1 30 -21 0 -18 9 -32 20 -32 11 0 20 13 20 29 0 33 -68 77 -87 57z"/> <path d="M7116 956 c-5 -30 -3 -50 5 -45 9 5 19 -6 23 -26 4 -19 13 -26 20 -15 6 11 1 47 -13 80 l-24 60 -11 -54z"/> <path d="M3186 930 c49 -171 90 -239 107 -176 7 30 21 40 44 32 26 -10 28 -7 9 14 -19 21 -31 21 -53 2 -24 -20 -33 -11 -54 52 -25 80 -74 149 -53 76z"/> <path d="M2090 920 c7 -11 3 -20 -9 -20 -13 0 -20 -30 -18 -70 3 -38 11 -70 19 -70 24 0 33 98 10 109 -12 5 -4 9 18 8 68 -3 74 2 43 33 -34 33 -82 41 -63 10z"/> <path d="M5943 922 c4 -14 16 -22 25 -18 10 3 24 -13 33 -36 16 -42 139 -48 139 -6 0 9 -12 12 -27 6 -15 -5 -61 10 -103 35 -44 25 -72 34 -67 19z"/> <path d="M2464 879 c-13 -21 -35 -37 -49 -34 -13 3 -26 -17 -29 -45 l-4 -50 17 50 c9 28 18 40 19 28 3 -33 54 -25 77 12 12 19 15 44 7 56 -9 15 -22 9 -38 -17z"/> <path d="M5523 840 c26 -22 38 -38 27 -35 -11 3 -22 -4 -25 -15 -3 -11 12 -21 33 -22 27 -2 35 7 27 30 -18 52 -48 82 -80 82 -20 0 -15 -12 18 -40z"/> <path d="M6996 795 c-11 -56 0 -95 27 -95 11 0 15 28 10 62 -13 80 -26 91 -37 33z"/> <path d="M5625 771 c0 -39 6 -47 25 -31 14 11 40 15 57 8 18 -7 33 -2 33 10 0 12 -16 22 -36 22 -20 0 -46 10 -57 22 -16 15 -22 6 -22 -31z"/> <path d="M6547 777 c7 -29 18 -68 25 -85 7 -18 2 -32 -10 -32 -12 0 -22 14 -22 30 0 17 -8 30 -19 30 -11 0 -11 -25 0 -65 11 -36 19 -67 19 -70 0 -3 10 -5 22 -5 16 0 15 9 -2 30 -21 25 -19 30 10 30 40 0 31 128 -12 168 -17 17 -20 9 -11 -31z"/> <path d="M6066 763 c-13 -8 -22 -29 -19 -48 9 -58 28 -59 42 -4 15 61 10 73 -23 52z"/> <path d="M5486 735 c-1 -14 -7 -40 -15 -57 -8 -21 -2 -37 18 -45 17 -6 31 -3 31 8 0 10 -11 19 -25 20 -15 0 -10 12 12 28 20 16 31 38 24 50 -18 29 -44 27 -45 -4z"/> <path d="M3120 702 c0 -23 -10 -42 -22 -42 -12 0 -18 12 -12 27 6 14 -2 26 -18 26 -34 0 -34 -3 -5 -50 27 -43 121 -14 112 35 -8 47 -55 50 -55 4z"/> <path d="M4268 711 c-19 -49 1 -100 42 -108 40 -7 40 -6 0 24 -39 30 -39 31 8 19 34 -9 44 -5 34 11 -8 13 -27 23 -43 23 -36 0 -38 33 -4 47 20 8 19 10 -1 11 -14 1 -30 -11 -36 -27z"/> <path d="M2433 677 c-21 -78 -15 -138 8 -82 10 25 31 45 47 45 15 0 27 13 24 29 -6 41 -32 64 -32 29 -1 -23 -4 -23 -18 -1 -12 20 -20 15 -29 -20z"/> <path d="M6757 693 c13 -15 19 -31 14 -36 -5 -5 9 -20 32 -34 23 -14 36 -17 29 -6 -7 11 -1 24 13 30 16 6 13 10 -8 11 -18 1 -38 16 -44 32 -7 17 -22 30 -35 30 -17 0 -17 -7 -1 -27z"/> <path d="M6366 685 c-17 -5 -13 -21 14 -50 22 -23 45 -37 52 -30 19 19 -39 90 -66 80z"/> <path d="M6226 651 c-1 -12 -16 -96 -33 -188 -32 -162 -42 -259 -25 -241 5 4 14 43 21 87 15 95 11 91 92 102 36 4 75 17 86 28 12 12 46 21 77 21 43 0 56 10 56 40 0 22 -9 40 -20 40 -11 0 -18 -10 -15 -21 6 -23 -131 -78 -196 -79 -32 0 -41 13 -40 60 1 33 8 60 16 60 8 0 12 20 10 45 -4 34 4 43 32 39 21 -4 32 2 25 13 -16 26 -85 21 -86 -6z"/> <path d="M3326 638 c-24 -24 -11 -98 18 -98 11 0 15 11 10 25 -5 14 5 41 22 60 35 41 -10 53 -50 13z"/> <path d="M5742 614 c17 -13 28 -34 24 -47 -10 -28 49 -52 65 -26 7 11 0 18 -15 14 -14 -3 -23 8 -20 23 6 29 -30 62 -66 61 -11 0 -6 -11 12 -25z"/> <path d="M5603 581 l47 -40 -50 -1 c-27 0 -62 -8 -78 -18 -30 -19 -13 -62 24 -62 16 1 14 7 -4 18 -20 13 -11 21 35 31 80 18 99 50 52 84 -57 42 -79 32 -26 -12z"/> <path d="M3251 580 c10 -16 19 -39 21 -50 10 -53 93 -251 102 -242 6 6 4 26 -5 46 -8 20 -13 47 -11 61 2 14 -5 25 -15 25 -10 0 -24 31 -31 68 -7 37 -28 80 -46 95 -29 23 -31 23 -15 -3z"/> <path d="M5960 552 c0 -18 -1 -39 -1 -46 -1 -8 8 -18 20 -22 13 -5 16 7 8 28 -10 25 -7 30 12 18 17 -10 23 -7 17 11 -13 39 -56 47 -56 11z"/> <path d="M6640 566 c17 -6 46 -25 65 -42 26 -22 42 -25 58 -9 34 34 6 56 -77 60 -42 1 -62 -2 -46 -9z"/> <path d="M1393 520 c17 -76 55 -160 72 -160 8 0 15 -13 15 -30 0 -16 14 -30 31 -30 17 0 49 -31 72 -70 22 -38 49 -70 59 -70 35 0 17 62 -33 116 -27 30 -66 88 -85 128 -18 41 -42 75 -51 75 -9 1 -33 21 -54 46 l-37 45 11 -50z"/> <path d="M5673 514 c-6 -23 -2 -54 10 -68 24 -28 57 -17 57 20 -1 16 -6 15 -18 -3 -12 -19 -21 -21 -31 -5 -21 35 5 59 51 47 31 -8 39 -23 33 -57 -5 -26 -2 -42 6 -37 34 20 39 -72 9 -132 -18 -34 -28 -68 -22 -74 6 -6 20 13 31 42 21 57 51 69 68 28 7 -19 10 -19 11 -1 1 14 17 20 37 13 29 -9 30 -7 6 10 -16 11 -35 17 -43 12 -19 -12 -64 105 -49 129 14 23 -57 94 -109 108 -25 6 -40 -4 -47 -32z"/> <path d="M6580 520 c12 -22 34 -40 50 -40 33 0 60 37 39 56 -8 8 -18 3 -23 -11 -13 -35 -46 -31 -46 5 0 17 -9 30 -21 30 -14 0 -14 -13 1 -40z"/> <path d="M3208 480 c8 -28 22 -68 31 -90 9 -22 34 -84 55 -138 20 -54 52 -100 69 -103 46 -7 85 23 67 51 -12 19 -19 18 -31 -2 -13 -21 -20 -19 -31 9 -11 29 -17 31 -30 10 -12 -18 -17 -5 -18 38 0 36 -9 65 -19 65 -11 0 -14 14 -8 31 7 17 -3 47 -21 66 -17 20 -27 41 -22 47 6 6 -4 23 -22 38 -30 25 -32 23 -20 -22z"/> <path d="M3640 502 c0 -11 -18 -37 -39 -57 -38 -35 -38 -36 -2 -36 21 0 34 7 28 15 -5 9 5 16 22 16 34 0 42 51 11 70 -11 7 -20 3 -20 -8z"/> <path d="M6685 467 c-40 -17 -29 -44 14 -33 30 8 42 -3 52 -43 8 -29 18 -48 24 -43 13 13 -35 133 -52 130 -7 0 -24 -6 -38 -11z"/> <path d="M2322 388 c-14 -38 -32 -64 -42 -58 -9 6 -14 -27 -11 -73 4 -46 -2 -109 -13 -139 -11 -31 -16 -72 -12 -92 4 -20 24 36 44 124 21 88 46 171 57 185 11 14 13 25 4 25 -8 0 0 17 19 38 27 30 29 39 6 48 -18 6 -36 -14 -52 -58z"/> <path d="M5486 411 c20 -20 32 -48 26 -63 -6 -16 1 -22 19 -15 31 12 41 87 11 87 -10 0 -35 6 -55 14 -36 13 -36 12 -1 -23z"/> <path d="M5650 405 c-27 -20 -37 -71 -10 -55 11 7 20 -2 20 -19 0 -17 9 -31 19 -31 11 0 14 15 7 33 -9 24 -5 29 12 18 15 -9 20 -35 13 -63 -9 -36 -5 -44 19 -35 16 6 25 19 19 29 -6 9 -1 35 11 58 12 22 15 39 6 38 -50 -8 -107 5 -96 22 15 24 8 25 -20 5z"/> <path d="M6065 375 c3 -45 28 -74 64 -75 10 0 8 11 -5 24 -13 13 -24 40 -24 60 0 20 -8 36 -19 36 -10 0 -17 -20 -16 -45z"/> <path d="M6702 403 c-1 -18 -17 -24 -42 -17 -30 8 -40 0 -40 -28 0 -45 16 -47 67 -9 20 16 32 40 27 55 -9 21 -11 21 -12 -1z"/> <path d="M5963 230 c-28 -77 -18 -110 32 -110 28 0 28 4 -4 27 -35 25 -35 28 11 62 32 23 40 38 23 45 -14 5 -20 18 -14 28 6 10 4 18 -6 18 -9 0 -28 -31 -42 -70z"/> <path d="M2551 246 c-16 -42 -16 -41 39 -31 60 11 65 36 11 50 -23 6 -43 -1 -50 -19z"/> <path d="M6331 221 c-8 -12 -22 -16 -32 -10 -38 23 -63 -14 -33 -48 16 -18 35 -46 42 -63 7 -16 9 -10 4 15 -4 25 -1 45 8 45 18 0 45 61 32 74 -4 5 -14 -1 -21 -13z"/> <path d="M5564 172 c23 -17 27 -33 13 -58 -24 -43 -10 -44 32 -3 44 45 39 63 -24 75 -46 9 -49 7 -21 -14z"/> <path d="M2760 70 c0 -38 7 -70 16 -70 9 0 16 32 16 70 0 39 -7 70 -16 70 -9 0 -16 -31 -16 -70z"/> <path d="M6998 107 c-18 -5 -42 -31 -55 -58 -34 -75 38 -65 81 11 19 33 28 59 20 58 -8 -2 -28 -7 -46 -11z"/> <path d="M6478 95 c-15 -50 -11 -76 11 -68 14 5 36 0 49 -13 16 -16 22 -16 22 1 0 31 -74 104 -82 80z"/> <path d="M7054 60 c-22 -32 -27 -52 -13 -57 33 -11 64 28 56 70 -7 33 -11 32 -43 -13z"/> </g> </svg> 