<?xml version="1.0" standalone="no"?>
<!DOCTYPE svg PUBLIC "-//W3C//DTD SVG 20010904//EN"
 "http://www.w3.org/TR/2001/REC-SVG-20010904/DTD/svg10.dtd">
<svg version="1.0" xmlns="http://www.w3.org/2000/svg"
 width="300.000000pt" height="281.000000pt" viewBox="0 0 300.000000 281.000000"
 preserveAspectRatio="xMidYMid meet">
<metadata>
Created by potrace 1.10, written by Peter Selinger 2001-2011
</metadata>
<g transform="translate(0.000000,281.000000) scale(0.100000,-0.100000)"
fill="#000000" stroke="none">
<path d="M1475 2160 c-11 -4 -25 -5 -31 -3 -6 2 -23 -3 -39 -11 -16 -8 -32
-13 -36 -11 -4 3 -12 -2 -18 -9 -17 -21 1 -27 32 -11 14 7 28 11 31 7 3 -3 6
-1 6 4 0 12 36 18 108 18 28 1 52 4 52 9 0 4 -8 8 -17 8 -10 1 -29 3 -43 4
-14 2 -34 -1 -45 -5z"/>
<path d="M1603 2128 c2 -7 12 -12 21 -12 9 1 16 -3 16 -9 0 -7 4 -7 12 1 10
10 10 15 -2 22 -22 14 -52 12 -47 -2z"/>
<path d="M1294 2120 c-12 -5 -25 -13 -28 -19 -4 -6 -22 -18 -41 -27 -19 -9
-35 -20 -35 -24 0 -4 -32 -48 -70 -99 -39 -51 -72 -103 -75 -114 -3 -12 -4
-80 -2 -152 3 -122 5 -132 30 -169 32 -45 36 -72 10 -61 -10 5 -29 8 -42 9
-21 1 -26 -5 -33 -39 -7 -34 -4 -51 24 -114 18 -41 32 -88 33 -105 0 -25 5
-32 23 -34 13 -2 29 1 35 7 10 7 19 -5 38 -47 43 -95 44 -120 7 -175 -31 -45
-41 -52 -143 -94 -61 -25 -175 -69 -255 -98 -289 -105 -312 -116 -337 -160
-28 -48 -47 -113 -63 -215 -6 -41 -18 -104 -26 -140 -14 -62 -43 -227 -44
-242 0 -5 8 -8 18 -8 14 0 19 8 20 31 1 49 13 109 21 109 4 0 6 13 3 29 -2 15
4 43 13 61 9 17 14 34 11 37 -3 3 -1 14 5 25 6 11 11 32 11 48 1 18 5 27 12
23 8 -4 8 -3 0 6 -13 15 -1 135 19 182 l15 34 3 -65 2 -65 7 73 c7 76 19 95
70 109 14 3 35 13 47 20 12 8 23 14 25 13 4 -2 34 8 68 22 14 5 25 8 26 6 0
-1 8 5 18 15 10 9 28 17 40 17 13 0 44 11 70 25 56 30 57 30 50 8 -4 -11 -2
-14 3 -8 4 6 46 30 93 54 79 41 83 42 67 18 -17 -26 -24 -52 -9 -32 4 6 26 28
49 49 33 31 45 37 56 28 8 -7 16 -9 19 -7 3 3 6 -17 7 -45 0 -28 3 -55 6 -61
3 -5 8 -39 10 -76 2 -38 8 -79 13 -93 5 -14 8 -28 5 -33 -2 -4 0 -7 4 -7 13 0
44 -64 59 -122 l14 -53 -6 65 c-4 41 -15 80 -29 105 -39 67 -70 452 -35 430 4
-2 10 -22 14 -44 7 -45 78 -232 101 -267 8 -13 15 -30 15 -39 0 -8 17 -26 38
-39 42 -27 83 -71 74 -80 -3 -4 4 -19 15 -35 16 -21 24 -55 33 -132 6 -57 16
-118 21 -135 5 -16 15 -70 22 -120 l13 -89 18 80 c28 134 68 298 82 338 7 20
9 37 4 37 -5 0 -12 10 -15 22 -4 16 13 62 54 144 74 151 89 184 112 259 29 93
23 88 -36 -30 -30 -61 -58 -115 -62 -120 -4 -6 -9 -17 -11 -25 -4 -20 -52
-111 -68 -131 -8 -9 -11 -19 -8 -22 4 -4 2 -13 -5 -21 -8 -10 -9 -26 -2 -56
10 -44 -3 -162 -18 -168 -5 -1 -6 -14 -3 -28 4 -23 2 -26 -19 -20 -13 3 -18 3
-11 0 21 -10 13 -26 -9 -19 -15 5 -19 4 -15 -4 4 -6 14 -11 23 -11 10 0 13 -6
9 -16 -3 -9 -6 -18 -6 -20 0 -2 -5 -4 -11 -4 -5 0 -7 4 -4 10 3 5 1 10 -5 10
-6 0 -9 4 -5 9 3 5 1 13 -5 16 -6 4 -10 21 -10 38 2 80 -9 180 -22 195 -32 41
-41 64 -26 73 11 7 11 9 -1 9 -24 0 -112 103 -145 170 -46 92 -99 230 -111
287 -2 10 -6 27 -10 38 -6 18 -5 18 7 4 7 -8 24 -29 39 -46 35 -42 159 -120
182 -114 4 0 10 -5 13 -13 3 -8 12 -12 20 -9 8 3 20 0 27 -5 26 -22 112 -15
162 12 17 9 35 16 42 16 18 0 27 20 14 33 -8 8 -11 8 -11 -1 0 -7 -7 -12 -16
-12 -9 0 -23 -8 -30 -17 -8 -11 -13 -13 -14 -5 0 6 -7 12 -16 12 -9 0 -14 -6
-11 -13 3 -8 -1 -14 -9 -14 -7 0 -11 4 -8 9 3 4 -2 5 -10 2 -9 -3 -16 -10 -16
-16 0 -5 -7 -2 -16 6 -18 18 -34 21 -34 5 0 -5 5 -7 12 -3 7 4 8 3 4 -4 -8
-13 -58 8 -71 28 -4 6 -11 8 -16 5 -5 -3 -29 3 -53 14 -32 14 -44 24 -42 38 2
10 1 12 -1 6 -3 -7 -8 -13 -11 -13 -18 1 -92 80 -112 120 -12 25 -27 48 -32
51 -4 3 -10 20 -13 37 -4 35 -21 94 -35 127 -12 26 -29 126 -24 139 8 24 10
107 2 112 -4 3 -8 -3 -8 -13 0 -15 -2 -16 -10 -3 -5 8 -7 25 -3 38 3 15 -3 33
-19 55 -13 17 -22 40 -20 50 4 20 18 22 26 5 3 -7 5 -4 3 7 -1 11 -9 20 -16
20 -8 0 -16 6 -18 13 -3 6 2 12 9 12 8 0 20 -6 27 -12 11 -11 11 -9 3 7 -29
56 -34 91 -16 130 7 17 14 39 16 50 4 24 34 49 49 40 6 -4 8 -13 5 -21 -3 -8
1 -14 9 -14 18 0 18 1 0 36 -13 26 -13 29 0 32 8 2 13 7 10 12 -3 5 -1 11 5
15 5 3 10 15 10 26 0 11 4 18 10 14 18 -11 58 7 64 28 3 12 8 18 12 14 4 -4
14 -2 21 5 11 9 17 9 24 -3 7 -12 9 -11 9 3 0 9 -6 19 -12 22 -10 5 -10 7 0
12 13 6 17 24 5 23 -5 0 -18 -4 -29 -9z m-196 -685 c2 -1 6 -20 9 -40 4 -28 3
-36 -5 -31 -8 5 -12 -2 -11 -21 1 -17 3 -21 6 -10 2 9 9 17 14 17 5 0 9 -8 9
-17 1 -10 3 -35 6 -56 7 -49 -2 -87 -21 -87 -8 0 -15 6 -16 13 -1 28 -10 61
-19 71 -16 20 -41 107 -37 129 3 22 4 21 15 -3 14 -32 15 -10 2 25 -10 26 -9
27 17 20 16 -4 29 -8 31 -10z"/>
<path d="M1656 2091 c-24 -26 -19 -31 14 -15 34 18 35 20 16 27 -8 3 -21 -2
-30 -12z"/>
<path d="M1739 2088 c-8 -28 -7 -48 2 -42 8 4 9 0 4 -15 -8 -27 11 -28 25 -1
8 14 8 26 0 40 -9 16 -28 27 -31 18z"/>
<path d="M1776 2014 c-9 -24 -7 -28 9 -14 21 17 31 5 14 -17 -13 -16 -12 -17
4 -4 15 12 17 11 17 -13 0 -15 -5 -36 -10 -46 -7 -13 -7 -21 2 -26 6 -4 8 -3
4 4 -3 6 -2 13 4 17 5 3 10 20 10 37 l0 32 21 -22 c11 -12 17 -27 14 -32 -3
-6 -1 -10 5 -10 7 0 9 -8 5 -19 -3 -10 0 -25 8 -33 7 -7 12 -19 9 -27 -3 -10
0 -12 11 -8 12 5 15 0 12 -24 -3 -17 0 -27 5 -24 6 4 10 -7 10 -24 0 -16 3
-37 7 -47 4 -10 2 -15 -3 -11 -6 3 -9 -8 -7 -29 2 -28 -1 -35 -12 -30 -11 4
-12 0 -5 -19 6 -15 5 -25 -1 -27 -13 -4 -14 -52 -4 -189 6 -79 4 -119 -6 -160
-14 -55 -16 -64 -18 -87 0 -7 -6 -10 -13 -6 -7 4 -8 3 -4 -4 7 -11 -8 -44 -31
-70 -7 -7 -13 -20 -13 -28 0 -16 -28 -65 -44 -76 -5 -3 -16 -4 -24 -1 -11 5
-13 1 -7 -15 5 -16 2 -22 -9 -22 -9 0 -16 -7 -16 -15 0 -25 17 -17 63 29 52
52 92 119 113 193 8 29 21 53 28 53 22 0 48 37 42 58 -4 11 0 52 9 90 9 39 15
90 13 114 -3 40 -5 43 -30 41 -32 -2 -34 6 -12 50 21 40 14 215 -10 262 -8 17
-21 53 -28 80 -19 70 -35 95 -61 95 -12 0 -28 9 -35 20 -15 24 -28 26 -36 4z
m188 -596 c-3 -46 -7 -92 -11 -103 -4 -11 -6 -28 -4 -39 4 -24 -7 -66 -17 -66
-5 0 -8 59 -8 131 1 117 3 132 20 145 11 8 21 14 22 14 1 0 0 -37 -2 -82z"/>
<path d="M1530 1927 c0 -12 6 -17 17 -15 26 5 28 34 3 34 -13 0 -20 -7 -20
-19z"/>
<path d="M1290 1909 c0 -20 29 -59 43 -58 9 0 9 2 0 6 -7 2 -13 10 -13 16 -1
19 -30 54 -30 36z"/>
<path d="M1839 1900 c-1 -8 -1 -19 0 -24 1 -5 -4 -13 -11 -18 -9 -7 -4 -8 15
-5 15 2 27 0 27 -6 0 -6 3 -8 6 -4 4 3 -3 21 -15 39 -12 19 -21 27 -22 18z"/>
<path d="M1740 1859 c0 -4 5 -11 11 -15 6 -3 8 -17 4 -31 -4 -16 -2 -24 5 -21
6 2 11 6 10 8 -1 3 3 17 9 31 9 24 7 27 -15 32 -13 2 -24 1 -24 -4z"/>
<path d="M1861 1753 c-9 -4 -5 -12 15 -29 16 -13 22 -21 13 -18 -19 6 -35 -11
-20 -21 6 -3 20 4 33 17 l22 22 -27 9 c-15 5 -25 13 -21 18 6 10 5 10 -15 2z"/>
<path d="M1322 1630 c-24 -15 -38 -18 -46 -11 -9 8 -18 4 -33 -12 -20 -21 -43
-60 -43 -71 0 -15 19 -4 25 13 3 11 15 23 26 26 10 4 17 9 15 13 -2 4 19 6 47
4 43 -2 49 -1 33 9 -17 10 -16 12 10 30 39 26 8 24 -34 -1z"/>
<path d="M1622 1625 l-22 -27 -9 23 c-9 23 -10 23 -10 2 -1 -36 9 -53 27 -45
10 5 44 9 77 11 57 2 85 13 85 33 0 5 -10 6 -21 3 -14 -5 -19 -3 -15 3 4 6 -1
11 -11 10 -10 0 -32 3 -49 7 -26 6 -34 3 -52 -20z m63 5 c3 -5 -1 -10 -9 -10
-9 0 -16 -4 -16 -8 0 -5 -7 -9 -15 -9 -18 0 -19 9 -3 25 15 15 35 16 43 2z"/>
<path d="M1775 1630 c10 -11 13 -20 7 -20 -7 0 -12 -4 -12 -9 0 -6 9 -8 20 -6
15 3 24 -3 30 -20 12 -31 17 -32 15 -3 -1 11 -14 34 -30 50 -32 32 -58 39 -30
8z"/>
<path d="M1631 1557 c-13 -6 -25 -20 -27 -29 -2 -14 5 -18 29 -18 22 0 28 3
18 9 -10 7 -10 10 -1 16 7 4 15 3 19 -2 11 -18 41 -23 41 -8 0 9 -6 12 -17 8
-11 -4 -14 -3 -9 5 11 19 26 14 36 -10 5 -13 9 -17 9 -10 1 6 6 12 12 12 5 0
7 -4 4 -10 -4 -6 6 -10 23 -10 19 0 29 5 29 16 0 17 -44 51 -53 41 -3 -3 4 -8
15 -12 12 -3 21 -10 21 -15 0 -4 -18 -1 -40 6 -23 8 -53 12 -68 8 -21 -4 -24
-3 -12 5 21 15 0 13 -29 -2z"/>
<path d="M1420 1545 c43 -17 33 -19 -24 -4 -34 8 -50 8 -79 -5 -22 -9 -37 -11
-37 -5 0 6 -5 7 -10 4 -6 -4 -8 -11 -5 -16 4 -5 1 -9 -6 -9 -9 0 -10 -3 -3
-10 11 -11 56 -1 48 11 -3 5 0 9 5 9 6 0 11 -4 11 -10 0 -16 52 -12 64 6 8 10
18 13 31 8 18 -7 18 -8 -1 -16 -13 -5 -8 -6 14 -2 38 7 40 -1 10 -34 l-23 -25
28 18 c15 9 27 24 27 32 0 8 4 12 9 9 4 -3 6 5 4 18 -4 17 -14 26 -35 30 -51
10 -65 5 -28 -9z"/>
<path d="M1430 1379 c-28 -35 -31 -43 -22 -65 7 -14 20 -24 32 -24 12 0 18 5
15 10 -3 6 3 10 14 10 24 0 27 -10 9 -28 -9 -9 -9 -12 0 -12 7 0 12 -7 12 -15
0 -18 -16 -20 -23 -2 -3 7 -6 4 -6 -6 -1 -10 -6 -15 -11 -12 -6 4 -8 10 -5 15
3 4 -20 -4 -49 -19 l-55 -26 3 -52 c1 -29 -1 -50 -5 -48 -4 3 -7 -11 -7 -31 0
-30 2 -34 13 -23 15 17 28 89 15 89 -4 0 -7 8 -5 18 2 9 4 23 4 30 1 10 5 10
21 0 18 -11 24 -10 41 12 12 14 17 19 13 11 -6 -11 -3 -13 12 -7 10 5 27 10
36 13 9 3 18 15 20 27 2 14 9 20 23 19 11 -1 14 0 7 3 -6 3 -10 9 -7 13 2 5
-7 18 -20 31 -22 20 -28 22 -51 12 -14 -7 -30 -10 -35 -7 -15 10 20 65 41 65
13 0 20 7 20 20 0 30 -15 24 -50 -21z"/>
<path d="M1584 1314 c-18 -15 -18 -15 8 -10 15 4 29 2 33 -4 3 -5 13 -6 22 -3
14 6 14 8 -3 20 -23 17 -36 16 -60 -3z"/>
<path d="M1562 1278 c-7 -7 -12 -21 -13 -32 0 -12 -3 -15 -6 -8 -2 6 -11 12
-20 12 -24 0 -9 -25 18 -27 28 -3 64 21 54 36 -3 6 -12 8 -18 4 -7 -4 -6 0 2
10 15 19 1 23 -17 5z"/>
<path d="M1603 1249 c0 -15 6 -30 14 -33 8 -3 13 2 13 15 0 11 -6 26 -13 34
-11 11 -14 8 -14 -16z"/>
<path d="M1640 1236 c0 -8 11 -17 25 -20 14 -4 35 -16 46 -27 11 -11 22 -19
24 -17 9 9 9 43 0 43 -5 1 -27 9 -49 18 -46 20 -46 20 -46 3z"/>
<path d="M1675 1180 c2 -4 -44 -7 -103 -7 -101 0 -190 -8 -199 -17 -3 -2 11
-7 29 -11 18 -4 40 -12 48 -18 12 -9 13 -9 3 3 -7 8 -13 17 -13 21 0 9 214 8
220 -1 3 -4 22 -5 43 -1 l39 6 -36 16 c-19 9 -34 13 -31 9z"/>
<path d="M1731 1096 c5 -27 7 -52 4 -56 -3 -4 4 -19 15 -31 21 -26 26 -19 9
13 -10 18 -9 20 7 14 15 -6 17 -5 7 5 -7 7 -13 22 -13 34 0 11 -9 31 -19 45
l-19 24 9 -48z"/>
<path d="M1543 1082 l-51 -3 9 -31 c5 -18 14 -35 21 -39 14 -9 38 7 38 26 0
17 29 13 41 -6 6 -9 7 -3 4 20 -2 18 -5 34 -7 35 -2 0 -26 0 -55 -2z"/>
<path d="M1650 1002 c0 -6 6 -12 13 -15 9 -3 9 -7 -1 -19 -9 -11 -10 -18 -2
-23 10 -6 11 -5 14 14 0 5 4 13 9 17 4 4 7 12 7 17 0 6 -3 7 -7 4 -3 -4 -12
-2 -20 4 -8 8 -13 8 -13 1z"/>
<path d="M1836 855 c-8 -186 -15 -239 -55 -390 -31 -118 -79 -450 -66 -463 11
-11 24 22 18 45 -3 13 -1 23 3 23 5 0 9 24 10 53 1 82 8 157 14 157 3 0 5 12
6 28 2 49 14 116 24 127 6 7 7 14 4 17 -3 3 1 21 9 39 8 19 15 37 15 42 1 4 2
8 3 10 0 1 2 13 5 27 7 40 13 52 24 45 6 -4 5 4 -2 19 -9 21 -8 38 5 84 9 32
13 69 10 82 -5 17 -3 21 7 15 10 -6 12 3 8 44 -3 28 -2 50 1 49 3 -2 25 -12
48 -22 40 -17 44 -24 89 -126 26 -60 52 -107 57 -103 5 3 4 9 -3 13 -7 4 -9
13 -6 19 4 6 2 11 -4 11 -6 0 -8 5 -5 10 4 6 -12 44 -34 86 -38 71 -39 74 -14
54 18 -14 29 -17 33 -9 5 7 21 0 46 -23 45 -40 76 -55 67 -32 -3 7 -10 14 -16
14 -6 0 -8 3 -4 6 3 4 22 -4 41 -16 20 -12 40 -19 45 -16 5 4 13 1 17 -5 5 -8
3 -9 -7 -4 -8 5 -11 4 -6 0 4 -5 17 -10 30 -12 46 -6 53 -9 80 -27 15 -10 30
-16 34 -13 6 7 79 -27 103 -48 8 -7 24 -15 35 -17 11 -1 29 -14 39 -27 19 -23
20 -23 28 -5 4 11 6 -22 4 -76 -5 -127 -46 -251 -132 -396 -35 -60 -64 -118
-64 -129 0 -11 34 38 75 108 41 71 75 134 75 141 0 6 4 16 8 21 5 6 19 55 32
110 40 176 36 167 45 113 4 -26 6 -97 3 -158 -2 -85 0 -111 10 -115 8 -3 12
-11 9 -18 -2 -6 5 -36 15 -64 20 -59 26 -86 27 -125 1 -20 6 -28 20 -28 17 0
17 4 -6 97 -13 54 -32 178 -43 275 -13 122 -25 192 -39 223 -19 43 -26 49
-118 91 -54 25 -141 61 -193 81 -52 19 -124 46 -160 60 -36 14 -97 37 -136 52
-69 25 -143 78 -155 110 -3 9 -9 -51 -13 -134z"/>
<path d="M1252 637 c-8 -10 -2 -42 22 -122 19 -61 43 -164 55 -230 11 -66 23
-131 26 -145 3 -14 9 -49 15 -79 5 -30 12 -57 15 -59 15 -15 -2 86 -65 393
-23 110 -40 212 -37 228 4 29 -13 37 -31 14z"/>
<path d="M1730 614 c-11 -29 -16 -172 -6 -182 3 -3 6 20 6 50 0 31 3 70 6 88
6 27 10 31 31 27 20 -4 24 -1 21 17 -5 34 -46 34 -58 0z"/>
<path d="M2062 609 c-13 -16 -41 -41 -62 -56 -22 -16 -40 -30 -40 -33 0 -3 10
-11 23 -19 15 -9 18 -9 10 -1 -13 14 -12 16 60 78 25 21 42 44 38 49 -3 6 -16
-3 -29 -18z"/>
<path d="M950 603 c0 -22 105 -97 121 -87 7 4 0 12 -18 19 -16 7 -46 27 -66
45 -20 18 -37 28 -37 23z"/>
<path d="M978 454 c-27 -20 -48 -39 -48 -42 1 -26 30 -195 34 -200 9 -8 7 25
-8 121 l-13 87 32 20 c29 18 64 51 54 50 -2 0 -25 -17 -51 -36z"/>
<path d="M461 429 c-2 -52 42 -197 88 -289 50 -100 51 -101 51 -125 0 -8 5
-15 11 -15 5 0 7 5 4 11 -4 5 -9 25 -12 42 -2 18 -18 53 -35 79 -31 50 -58
124 -88 248 -10 41 -19 63 -19 49z"/>
<path d="M1270 365 c-3 -13 -3 -13 4 -64 6 -49 16 -68 15 -30 0 31 -16 107
-19 94z"/>
<path d="M1242 294 c6 -21 11 -49 10 -61 -2 -24 12 -31 23 -13 3 6 2 10 -3 10
-5 0 -9 6 -10 13 -3 42 -10 69 -20 79 -8 8 -8 1 0 -28z"/>
<path d="M1660 203 c-43 -88 -83 -193 -76 -200 2 -2 11 18 21 44 9 27 26 63
37 82 26 45 70 152 65 157 -2 2 -23 -35 -47 -83z"/>
<path d="M1292 190 c5 -54 5 -54 -9 -22 -7 17 -15 32 -18 32 -5 0 7 -33 30
-78 13 -25 14 -36 5 -46 -7 -9 -7 -15 -1 -18 6 -1 8 -13 5 -25 -4 -13 -11 -20
-18 -16 -6 3 -8 2 -3 -2 4 -5 17 -10 29 -12 18 -3 20 1 15 25 -3 16 -11 69
-18 118 -13 99 -24 129 -17 44z"/>
<path d="M975 155 c3 -27 9 -70 14 -95 6 -25 10 -48 11 -52 0 -5 4 -8 9 -8 4
0 0 42 -11 93 -22 110 -30 130 -23 62z"/>
</g>
</svg>
